<?xml version="1.0" standalone="no"?>
<!DOCTYPE svg PUBLIC "-//W3C//DTD SVG 20010904//EN"
 "http://www.w3.org/TR/2001/REC-SVG-20010904/DTD/svg10.dtd">
<svg version="1.0" xmlns="http://www.w3.org/2000/svg"
 width="347.000000pt" height="349.000000pt" viewBox="0 0 347.000000 349.000000"
 preserveAspectRatio="xMidYMid meet">
<metadata>
Created by potrace 1.16, written by Peter Selinger 2001-2019
</metadata>
<g transform="translate(0.000000,349.000000) scale(0.100000,-0.100000)"
fill="#000000" stroke="none">
<path d="M1140 3479 c-113 -7 -319 -13 -335 -8 -5 1 -22 -3 -36 -9 -15 -6 -36
-8 -48 -5 -21 5 -29 -11 -11 -22 6 -3 10 -15 10 -26 0 -11 10 -24 23 -29 12
-5 18 -10 12 -11 -14 -3 -37 -6 -59 -8 -12 0 -16 -6 -12 -16 4 -12 -3 -15 -29
-15 -24 0 -35 -5 -35 -15 0 -8 -8 -15 -18 -15 -10 0 -27 -7 -38 -15 -18 -14
-18 -14 7 -15 15 0 32 -6 39 -14 9 -12 6 -16 -23 -21 -19 -4 -54 -3 -78 2 -47
10 -50 15 -35 81 7 30 6 32 -19 32 -22 0 -26 -4 -22 -20 3 -11 1 -23 -4 -26
-5 -3 -9 -13 -9 -23 0 -20 -26 -31 -75 -31 -60 -1 -60 0 -63 -225 l-3 -205
-30 -16 c-27 -13 -30 -19 -24 -47 4 -18 11 -36 15 -41 5 -5 5 -19 0 -31 -5
-12 -12 -105 -15 -206 -8 -205 1 -288 37 -326 20 -21 21 -29 14 -140 -11 -206
-25 -253 -72 -255 -10 -1 -44 2 -75 6 l-56 8 -6 -59 c-4 -32 -10 -143 -13
-248 -7 -193 2 -290 29 -307 7 -4 80 -8 162 -9 180 -2 211 -7 207 -34 -11 -65
-15 -73 -49 -89 -21 -10 -39 -28 -46 -46 -7 -17 -19 -30 -29 -30 -9 0 -20 -4
-23 -10 -9 -15 -25 -12 -25 5 0 8 -7 15 -16 15 -9 0 -12 -5 -8 -11 4 -7 1 -10
-7 -7 -8 3 -16 15 -17 29 -8 53 -51 67 -71 23 -10 -23 -9 -26 4 -20 13 4 14 2
5 -14 -6 -11 -20 -64 -31 -117 -11 -54 -21 -98 -22 -98 -1 -1 -14 -6 -29 -12
-20 -9 -28 -9 -31 0 -3 9 -8 8 -18 -2 -10 -10 -11 -15 -2 -18 9 -3 9 -11 1
-31 -5 -15 -12 -73 -14 -130 -2 -57 -6 -113 -8 -125 -3 -12 -8 -73 -11 -134
-6 -98 -5 -113 9 -113 12 0 14 -7 10 -30 l-6 -30 158 1 c88 0 197 5 244 10 47
6 121 12 165 14 44 1 139 6 211 10 165 9 170 7 179 -79 8 -76 7 -76 144 -76
99 0 488 24 655 40 54 6 141 10 193 10 52 0 103 5 114 11 15 8 24 7 36 -3 8
-7 39 -13 67 -13 l52 -1 -1 50 c-1 28 -5 65 -9 83 -7 28 -4 36 22 63 28 27 37
30 94 30 36 0 69 -5 76 -12 9 -9 15 -8 26 7 13 18 14 18 9 -9 -5 -23 -3 -27
13 -24 12 2 19 12 18 27 -1 18 3 21 20 17 12 -3 38 -6 58 -6 36 0 37 -1 27
-24 -9 -20 -7 -28 12 -50 23 -27 61 -36 56 -13 -1 8 9 11 35 9 26 -2 39 1 45
13 9 15 13 13 43 -12 32 -26 33 -27 28 -5 -3 12 -2 22 4 22 6 0 8 6 5 14 -7
16 44 30 54 14 4 -6 20 -6 47 2 23 6 52 8 66 4 36 -9 65 12 86 61 20 47 48 69
76 58 29 -11 44 24 44 106 0 42 -5 94 -10 116 -6 22 -14 104 -19 182 -6 78
-15 151 -20 162 -13 23 2 37 35 33 11 -2 31 6 45 17 24 19 24 21 22 178 -3
242 -18 400 -43 450 -18 36 -23 66 -27 195 -5 141 -4 154 13 170 24 20 87 38
137 38 66 0 93 49 104 190 3 52 -1 114 -16 204 l-21 129 20 19 c33 31 52 88
57 178 4 72 0 103 -26 203 -16 65 -39 138 -51 161 -11 23 -20 56 -20 73 0 31
0 31 -52 28 -29 -1 -61 -5 -70 -10 -11 -4 -18 -3 -18 4 0 17 -92 13 -117 -4
-15 -10 -24 -12 -28 -4 -4 6 -13 8 -21 5 -8 -3 -24 0 -35 7 -16 10 -21 9 -28
-1 -13 -22 -39 -2 -46 36 -8 54 -9 104 -1 129 4 14 1 31 -9 46 -9 14 -14 31
-13 38 2 11 -21 15 -102 20 -58 3 -121 2 -140 -2 -19 -5 -52 -9 -73 -9 -21 0
-53 -7 -72 -14 -19 -8 -35 -11 -35 -7 0 5 -114 12 -252 15 -139 4 -264 7 -278
8 -58 2 -180 -8 -180 -14 0 -5 -7 -8 -15 -8 -18 0 -20 -21 -2 -39 10 -11 10
-13 0 -7 -8 4 -13 1 -13 -8 0 -8 7 -19 16 -24 9 -5 13 -12 8 -14 -18 -11 -209
-19 -223 -9 -9 6 -18 36 -22 76 -3 36 -8 67 -10 69 -9 8 -303 11 -399 5z"/>
</g>
</svg>
