<?xml version="1.0" standalone="no"?>
<!DOCTYPE svg PUBLIC "-//W3C//DTD SVG 20010904//EN"
 "http://www.w3.org/TR/2001/REC-SVG-20010904/DTD/svg10.dtd">
<svg version="1.0" xmlns="http://www.w3.org/2000/svg"
 width="500.000000pt" height="500.000000pt" viewBox="0 0 500.000000 500.000000"
 preserveAspectRatio="xMidYMid meet">
<metadata>
Created by potrace 1.16, written by Peter Selinger 2001-2019
</metadata>
<g transform="translate(0.000000,500.000000) scale(0.100000,-0.100000)"
fill="#000000" stroke="none">
<path d="M543 3980 c-55 -11 -115 -52 -150 -102 -28 -41 -28 -43 -28 -187 0
-80 6 -255 13 -388 27 -537 33 -735 31 -1059 -2 -375 1 -402 57 -460 40 -43
68 -43 110 1 18 19 39 35 47 35 48 0 70 -214 43 -415 -8 -66 -13 -131 -9 -145
15 -62 67 -79 102 -34 25 32 26 63 6 167 -21 110 -19 141 9 174 21 24 26 26
50 15 22 -10 26 -18 26 -55 0 -69 48 -99 90 -57 15 15 20 33 20 69 0 65 29 91
103 91 90 0 144 -54 184 -185 16 -53 18 -93 15 -351 -2 -223 -6 -303 -17 -340
-26 -86 -12 -159 34 -184 29 -15 39 -13 66 15 21 20 25 34 25 82 -1 32 -7 87
-15 123 -20 91 -21 576 -1 623 19 47 49 69 100 74 40 5 54 1 114 -36 37 -22
82 -43 99 -47 39 -8 102 20 162 70 55 46 132 86 165 86 47 0 56 -30 56 -187 0
-78 -5 -174 -12 -213 -10 -61 -10 -74 5 -105 9 -19 25 -36 34 -36 77 -5 101
54 69 167 -21 72 -32 352 -16 409 16 56 50 85 101 85 32 0 43 -6 74 -42 87
-102 138 -88 171 45 22 91 46 117 108 117 62 0 79 -26 81 -125 1 -57 5 -79 20
-95 23 -26 57 -26 81 1 16 18 18 34 16 116 -3 85 -1 101 22 147 35 69 80 99
152 99 85 0 137 -49 172 -162 25 -82 24 -469 -1 -634 -18 -114 -18 -119 0
-155 15 -30 24 -38 51 -40 76 -7 94 52 62 195 -28 121 -40 442 -20 533 16 72
54 145 85 166 46 30 124 1 157 -59 22 -42 27 -128 13 -210 -28 -155 -15 -207
50 -207 66 0 81 60 45 185 -30 105 -23 185 22 248 37 53 69 36 141 -76 46 -71
102 -113 173 -127 69 -14 117 -58 134 -120 12 -44 9 -304 -6 -541 -5 -78 -3
-102 10 -127 23 -44 59 -44 82 0 14 27 15 47 8 128 -14 164 -11 600 5 638 20
46 43 57 86 36 46 -22 60 -64 51 -164 -10 -117 17 -170 69 -136 30 20 33 43
20 166 -12 125 -4 217 27 279 24 49 67 74 92 56 61 -45 68 -48 93 -39 15 5 35
26 47 49 20 38 21 56 24 420 1 209 -1 657 -5 996 l-8 615 -27 42 c-15 22 -47
52 -70 66 l-43 24 -1555 -5 c-1841 -6 -2250 -6 -2310 0 -25 3 -64 1 -87 -3z
m327 -1968 c38 -31 2 -74 -39 -46 -32 23 -26 59 10 63 4 1 17 -7 29 -17z
m3020 -167 c57 -30 82 -136 34 -143 -29 -4 -79 40 -98 88 -26 66 0 88 64 55z
m-2127 -157 c31 -37 21 -90 -24 -113 -80 -42 -162 14 -132 90 9 24 83 56 113
50 14 -3 33 -15 43 -27z"/>
</g>
</svg>
