<?xml version="1.0" standalone="no"?>
<!DOCTYPE svg PUBLIC "-//W3C//DTD SVG 20010904//EN"
 "http://www.w3.org/TR/2001/REC-SVG-20010904/DTD/svg10.dtd">
<svg version="1.0" xmlns="http://www.w3.org/2000/svg"
 width="460.000000pt" height="338.000000pt" viewBox="0 0 460.000000 338.000000"
 preserveAspectRatio="xMidYMid meet">

<g transform="translate(0.000000,338.000000) scale(0.100000,-0.100000)"
fill="#000000" stroke="none">
<path d="M1910 3250 c-11 -7 -6 -8 18 -4 36 7 41 -4 13 -30 -15 -14 -24 -15
-40 -6 -17 8 -21 8 -21 -4 0 -8 -19 -31 -42 -50 l-42 -36 35 6 c18 3 56 10 82
15 26 5 62 9 80 9 36 0 101 -35 92 -49 -3 -5 0 -13 6 -17 7 -4 20 4 31 19 18
24 26 27 83 27 35 0 65 -4 67 -9 4 -13 77 14 101 38 14 13 17 25 12 38 -8 17
-8 17 -12 1 -4 -15 -16 -18 -63 -18 -32 0 -65 -3 -74 -6 -10 -4 -16 -1 -16 9
0 9 8 17 18 20 16 4 16 4 -1 12 -9 4 -29 4 -43 1 -20 -5 -25 -12 -21 -26 5
-21 -8 -25 -51 -14 -18 5 -20 9 -11 20 6 8 18 14 26 14 21 0 10 23 -18 37 -29
15 -187 17 -209 3z m190 -100 c0 -5 -9 -10 -20 -10 -11 0 -20 5 -20 10 0 6 9
10 20 10 11 0 20 -4 20 -10z"/>
<path d="M2243 3248 c2 -7 14 -13 27 -13 13 0 25 6 28 13 2 8 -7 12 -28 12
-21 0 -30 -4 -27 -12z"/>
<path d="M2330 3229 c0 -18 2 -19 15 -9 8 7 15 16 15 21 0 5 -7 9 -15 9 -9 0
-15 -9 -15 -21z"/>
<path d="M2414 3211 c21 -23 26 -26 26 -11 0 5 -10 15 -22 21 -23 12 -23 12
-4 -10z"/>
<path d="M1790 3196 c0 -9 5 -16 10 -16 6 0 10 4 10 9 0 6 -4 13 -10 16 -5 3
-10 -1 -10 -9z"/>
<path d="M1735 3150 c-3 -5 -1 -10 4 -10 6 0 11 5 11 10 0 6 -2 10 -4 10 -3 0
-8 -4 -11 -10z"/>
<path d="M2393 3153 c-19 -7 -16 -21 7 -28 27 -9 25 -24 -5 -35 -14 -5 -25
-16 -25 -25 0 -8 -9 -15 -19 -15 -11 0 -23 -4 -26 -10 -9 -14 35 -12 140 6 50
8 95 21 100 28 9 11 16 9 38 -10 29 -24 57 -32 57 -15 0 16 -61 57 -124 85
-54 24 -113 32 -143 19z m107 -53 c0 -5 -4 -10 -9 -10 -6 0 -13 5 -16 10 -3 6
1 10 9 10 9 0 16 -4 16 -10z"/>
<path d="M1500 3079 c0 -5 -18 -9 -40 -9 -29 0 -40 -4 -40 -15 0 -8 5 -15 11
-15 6 0 27 -13 46 -30 21 -19 28 -30 18 -30 -8 0 -15 -6 -15 -14 0 -9 -23 -2
-72 23 -75 37 -92 56 -61 64 10 3 5 5 -12 4 -26 -2 -30 -6 -30 -32 0 -16 -3
-35 -7 -41 -10 -16 25 -45 64 -53 36 -7 40 -28 5 -23 -12 1 -43 11 -69 22 -26
11 -54 20 -64 20 -16 0 -16 -1 1 -20 10 -11 26 -20 36 -20 10 0 18 -8 18 -17
3 -53 5 -62 17 -52 8 7 14 6 19 -1 3 -5 20 -10 36 -10 44 0 32 -22 -20 -39
-29 -9 -39 -17 -32 -24 7 -7 18 -5 36 7 30 19 47 13 24 -8 -21 -20 -102 -44
-209 -61 -120 -19 -149 -19 -171 1 -16 15 -20 15 -41 0 -12 -9 -42 -16 -66
-16 -41 0 -125 -30 -137 -49 -3 -5 -1 -12 5 -16 6 -4 8 -11 4 -16 -3 -6 4 -21
17 -35 l22 -24 -31 0 c-33 0 -62 22 -62 47 0 14 -4 13 -22 -4 -17 -15 -32 -19
-60 -16 -21 3 -45 2 -54 -1 -14 -5 -14 -9 -3 -23 13 -15 11 -16 -23 -10 -34 5
-38 4 -38 -16 -1 -21 -2 -21 -14 -4 -20 27 -44 11 -44 -29 0 -37 7 -45 44 -49
14 -1 33 -10 42 -19 15 -15 15 -16 0 -16 -9 0 -20 5 -23 10 -12 20 -25 9 -19
-15 7 -29 -10 -34 -37 -9 -20 18 -39 11 -39 -15 0 -25 11 -33 27 -19 17 14 31
2 15 -14 -14 -14 -63 -15 -106 -4 -27 7 -35 1 -108 -76 -58 -62 -81 -94 -89
-126 -7 -24 -23 -51 -37 -63 -25 -19 -25 -21 -10 -47 9 -15 30 -36 47 -47 16
-11 30 -26 31 -34 0 -11 5 -10 23 5 12 10 31 24 43 30 18 11 22 9 31 -16 8
-22 21 -31 52 -40 43 -11 50 -25 31 -61 -11 -20 -45 -26 -55 -9 -12 19 -41 10
-73 -23 -33 -34 -40 -64 -22 -98 9 -16 15 -17 31 -8 30 15 34 4 9 -21 -17 -17
-19 -24 -9 -36 15 -19 30 -18 23 1 -5 11 -2 13 10 9 12 -5 19 0 23 15 7 29 27
21 31 -12 l3 -26 22 22 22 22 3 -22 c4 -24 -28 -92 -53 -113 -14 -12 -14 -15
7 -37 l22 -24 -41 7 c-38 6 -43 4 -54 -19 -14 -31 7 -79 58 -132 27 -28 41
-35 58 -31 54 14 125 -92 104 -153 -9 -26 -6 -38 23 -93 26 -50 38 -64 59 -66
17 -2 29 -11 32 -23 3 -10 13 -19 22 -19 15 0 16 2 4 16 -12 15 -11 16 9 10
14 -5 29 -3 39 6 15 12 16 10 9 -12 -18 -61 -16 -95 6 -140 19 -37 27 -45 47
-42 30 3 79 -27 62 -38 -9 -5 -5 -15 13 -36 19 -22 28 -26 34 -16 12 18 32 -7
35 -45 2 -23 -2 -28 -20 -27 -34 1 -28 -19 18 -56 31 -25 53 -33 90 -36 l50
-4 -6 34 c-9 46 11 55 28 14 18 -42 93 -82 108 -57 83 133 139 214 150 214 24
0 20 -25 -5 -35 -26 -10 -35 -22 -40 -56 -1 -9 -10 -22 -19 -29 -9 -7 -17 -16
-17 -20 0 -4 -8 -13 -17 -20 -15 -11 -13 -13 16 -20 42 -9 64 8 35 30 -15 11
-16 14 -4 15 9 0 24 14 34 31 14 24 20 28 32 18 11 -9 21 -9 40 0 52 23 70 8
35 -30 -25 -27 -57 -87 -49 -94 10 -10 58 14 58 30 0 9 9 15 26 15 l25 0 -21
-27 c-11 -16 -45 -57 -75 -93 -30 -36 -55 -68 -55 -72 0 -5 10 -8 23 -8 28 0
107 -36 107 -48 0 -5 -7 -15 -15 -22 -10 -8 -13 -21 -9 -34 8 -26 4 -23 38
-32 26 -6 27 -5 17 14 -17 32 -14 43 13 36 19 -4 29 1 52 33 38 52 76 93 86
93 18 0 7 -42 -12 -47 -37 -10 -13 -43 32 -43 15 0 28 -5 28 -11 0 -20 -21
-49 -35 -49 -7 0 -17 -5 -21 -12 -5 -8 10 -10 58 -5 36 3 83 1 104 -4 52 -15
194 17 194 44 0 9 -6 17 -12 17 -7 0 -24 3 -38 7 -24 6 -25 6 -7 -14 18 -20
17 -20 -23 -19 -48 1 -50 10 -7 36 46 29 69 33 113 21 65 -18 72 -26 43 -51
-42 -36 -79 -51 -140 -58 -33 -4 -60 -11 -60 -17 0 -5 22 -15 50 -21 28 -7 57
-19 66 -28 22 -21 38 -20 60 4 24 26 31 18 11 -12 -14 -22 -14 -26 7 -56 19
-27 28 -32 66 -32 37 0 42 2 31 15 -13 16 -7 45 9 45 5 0 7 -9 4 -20 -6 -24 4
-26 28 -4 11 10 19 12 24 5 3 -6 -1 -14 -9 -17 -23 -9 -9 -24 21 -24 16 0 27
7 30 19 3 11 14 21 24 24 17 4 18 3 8 -9 -27 -32 14 -12 59 29 26 24 61 51 77
59 17 8 55 27 85 42 49 25 63 27 115 21 64 -7 103 -21 121 -45 10 -12 14 -12
28 0 12 9 62 16 154 21 121 6 242 21 280 34 9 4 6 11 -11 27 -13 13 -32 43
-41 68 -10 25 -24 57 -31 72 -14 29 -11 38 15 38 9 0 39 16 66 35 27 19 57 35
68 35 17 0 17 2 3 24 -20 30 -14 36 35 36 24 0 37 4 36 12 -6 26 59 21 96 -7
20 -15 20 -15 0 -30 -19 -14 -18 -14 4 -15 28 0 30 30 2 55 -41 37 -8 49 40
15 15 -10 45 -22 68 -26 39 -6 41 -5 55 29 8 19 31 47 51 62 20 15 36 33 36
41 0 7 14 29 32 49 l31 36 87 -7 88 -6 4 43 c3 33 -1 48 -15 62 -13 13 -17 26
-12 47 3 16 2 31 -4 35 -23 14 -9 23 29 18 26 -4 40 -2 40 6 0 6 -4 11 -10 11
-5 0 -10 5 -10 10 0 6 5 10 11 10 18 0 41 30 35 45 -7 18 -45 35 -63 28 -7 -3
-13 -12 -13 -20 0 -25 -24 -8 -43 30 -9 20 -22 37 -27 37 -6 0 -10 20 -10 45
0 26 5 45 11 45 22 0 69 -42 69 -61 0 -11 8 -23 18 -26 9 -4 32 -18 50 -32
l34 -25 -16 38 c-9 21 -16 39 -16 40 0 1 34 2 75 2 41 -1 75 -4 75 -8 0 -5 7
-8 15 -8 22 0 30 27 14 47 -12 15 -12 16 4 10 24 -9 57 26 57 59 0 17 6 28 20
31 11 3 20 11 20 17 0 15 48 61 73 69 21 8 22 21 2 37 -10 8 -12 17 -6 24 9
11 27 88 40 176 4 25 13 56 20 69 11 19 11 25 0 32 -11 7 -10 16 8 49 12 22
18 42 13 45 -4 3 -10 -2 -14 -10 -9 -25 -37 -17 -72 21 -34 35 -34 35 -34 10
0 -15 -8 -30 -20 -36 -11 -6 -20 -20 -20 -32 0 -40 -10 -11 -26 76 -10 55 -25
100 -41 123 -16 23 -21 39 -14 41 6 2 11 13 11 25 0 18 -2 19 -10 7 -5 -8 -10
-10 -11 -5 0 6 -4 1 -8 -10 -7 -18 -9 -18 -26 8 -12 18 -22 66 -30 140 -15
134 -19 143 -59 164 -17 9 -33 19 -36 22 -3 4 -24 17 -47 28 -23 12 -69 42
-103 67 -34 25 -69 46 -77 46 -12 0 -13 3 -4 14 9 10 8 16 -4 26 -19 16 -69 7
-137 -25 -66 -31 -75 -31 -104 0 -13 14 -31 25 -40 25 -15 0 -15 -2 2 -22 l19
-22 -30 21 c-39 27 -87 39 -205 54 -110 13 -122 18 -213 93 -45 37 -80 57
-105 61 -20 3 -55 11 -77 17 -71 19 -181 21 -216 4 -18 -9 -36 -16 -41 -16 -5
0 -31 22 -57 49 -34 34 -59 52 -85 56 -20 4 -36 11 -36 16 0 5 -14 16 -32 25
-42 22 -111 14 -143 -16 -15 -14 -39 -24 -62 -25 -30 -2 -41 -8 -53 -31 -8
-15 -19 -33 -23 -39 -4 -5 -13 -18 -21 -29 -12 -17 -13 -17 -29 -1 -11 11 -17
33 -17 63 0 27 -7 57 -16 70 -22 32 -12 49 34 57 33 5 39 10 35 26 -6 21 -28
26 -38 8 -4 -6 -23 -9 -42 -7 -18 1 -37 -2 -41 -9 -8 -13 -90 -39 -98 -31 -3
4 11 27 30 53 41 53 46 78 15 73 -20 -3 -33 -23 -80 -125 -17 -36 -27 -48 -36
-42 -20 17 -27 -30 -7 -52 20 -22 11 -24 -36 -8 -28 10 -34 9 -42 -6 -9 -15
-19 -16 -72 -10 -117 13 -204 75 -105 75 28 0 46 6 55 18 12 16 13 15 14 -6 0
-27 23 -25 28 1 5 23 -31 59 -51 51 -21 -8 -22 9 -2 26 23 19 38 7 60 -50 22
-57 42 -77 69 -67 27 11 19 50 -14 69 -17 9 -30 22 -30 28 0 14 33 13 49 -2
11 -11 12 -8 6 12 -11 38 -21 45 -49 32 -16 -7 -28 -8 -31 -2 -10 17 -51 11
-70 -10 -10 -11 -24 -20 -32 -20 -20 0 -16 27 9 50 12 11 20 20 17 20 -2 0
-19 4 -37 9 -20 6 -32 6 -32 0z m-142 -100 c7 -12 11 -23 8 -26 -8 -9 -36 17
-36 33 0 20 13 17 28 -7z m202 -10 c0 -6 -4 -7 -10 -4 -5 3 -10 11 -10 16 0 6
5 7 10 4 6 -3 10 -11 10 -16z m760 -90 c12 -22 2 -25 -25 -6 -10 8 -15 19 -11
26 9 14 22 7 36 -20z m-960 -25 c0 -8 -4 -12 -10 -9 -5 3 -10 10 -10 16 0 5 5
9 10 9 6 0 10 -7 10 -16z m181 -34 c13 -10 19 -19 13 -20 -7 0 -22 9 -35 20
-13 10 -19 19 -13 20 7 0 22 -9 35 -20z m469 -19 c0 -12 -20 -25 -27 -18 -7 7
6 27 18 27 5 0 9 -4 9 -9z m140 -26 c0 -8 -9 -15 -20 -15 -17 0 -19 2 -8 15
17 19 28 19 28 0z m-433 -91 c-3 -3 -12 -4 -19 -1 -8 3 -5 6 6 6 11 1 17 -2
13 -5z m-367 -74 c20 -20 15 -25 -14 -14 -9 3 -16 12 -16 20 0 19 6 18 30 -6z
m-510 -16 c0 -2 -9 -4 -21 -4 -11 0 -18 4 -14 10 5 8 35 3 35 -6z m-131 -63
c12 -16 21 -32 21 -35 0 -13 -77 -5 -96 9 -19 15 -19 15 5 35 32 27 46 25 70
-9z m831 -71 c0 -5 -2 -10 -4 -10 -3 0 -8 5 -11 10 -3 6 -1 10 4 10 6 0 11 -4
11 -10z m1870 -65 c0 -8 -4 -15 -10 -15 -5 0 -10 7 -10 15 0 8 5 15 10 15 6 0
10 -7 10 -15z m630 -114 c12 -24 13 -131 1 -131 -20 0 -61 62 -61 94 0 52 39
76 60 37z m-3710 -75 c0 -11 -19 -15 -25 -6 -3 5 1 10 9 10 9 0 16 -2 16 -4z
m-50 -31 c-7 -8 -20 -15 -29 -15 -13 1 -13 3 3 15 26 19 42 19 26 0z m3794
-256 c-3 -5 -10 -7 -15 -3 -5 3 -7 10 -3 15 3 5 10 7 15 3 5 -3 7 -10 3 -15z
m-3834 -130 c0 -5 -4 -9 -10 -9 -5 0 -10 7 -10 16 0 8 5 12 10 9 6 -3 10 -10
10 -16z m3790 12 c0 -12 -20 -25 -27 -18 -7 7 6 27 18 27 5 0 9 -4 9 -9z m80
-7 c0 -8 -4 -12 -10 -9 -5 3 -10 10 -10 16 0 5 5 9 10 9 6 0 10 -7 10 -16z
m-36 -19 c3 -8 1 -15 -3 -15 -5 0 -11 7 -15 15 -3 8 -1 15 3 15 5 0 11 -7 15
-15z m-3804 -5 c0 -5 -2 -10 -4 -10 -3 0 -8 5 -11 10 -3 6 -1 10 4 10 6 0 11
-4 11 -10z m3940 -39 c0 -10 -7 -21 -15 -25 -15 -5 -22 24 -8 37 12 13 23 7
23 -12z m-650 -21 c0 -5 -4 -10 -10 -10 -5 0 -10 5 -10 10 0 6 5 10 10 10 6 0
10 -4 10 -10z m576 -24 c7 -28 -2 -49 -17 -41 -12 8 -12 65 1 65 5 0 12 -11
16 -24z m-406 -20 c0 -11 -19 -15 -25 -6 -3 5 1 10 9 10 9 0 16 -2 16 -4z
m553 -32 c20 -26 16 -59 -6 -52 -6 3 -13 13 -15 24 -2 15 -11 20 -42 20 -47 2
-53 -14 -10 -22 17 -4 30 -8 30 -9 0 -16 -15 -35 -27 -35 -11 0 -10 -6 5 -28
43 -60 37 -146 -9 -121 -38 20 -66 117 -39 134 16 10 12 23 -10 30 -47 15 -8
64 60 76 19 3 37 7 40 7 3 1 13 -10 23 -24z m-253 -34 c0 -5 -4 -10 -10 -10
-5 0 -10 5 -10 10 0 6 5 10 10 10 6 0 10 -4 10 -10z m-130 -61 c0 -5 -4 -9
-10 -9 -5 0 -10 7 -10 16 0 8 5 12 10 9 6 -3 10 -10 10 -16z m202 -6 c3 -16 9
-36 13 -45 11 -27 -10 -22 -47 11 -28 25 -30 31 -19 45 21 26 48 20 53 -11z
m-427 -1 c0 -18 -20 -15 -23 4 -3 10 1 15 10 12 7 -3 13 -10 13 -16z m85 -4
c0 -16 -3 -19 -11 -11 -6 6 -8 16 -5 22 11 17 16 13 16 -11z m280 -28 c0 -5
-4 -10 -10 -10 -5 0 -10 5 -10 10 0 6 5 10 10 10 6 0 10 -4 10 -10z m-3735
-60 c3 -5 2 -10 -4 -10 -5 0 -13 5 -16 10 -3 6 -2 10 4 10 5 0 13 -4 16 -10z
m3483 -20 c14 -23 8 -40 -14 -40 -9 0 -14 11 -14 30 0 35 10 38 28 10z m-3387
-20 c19 -15 20 -19 8 -20 -9 0 -27 9 -40 20 -19 15 -20 19 -8 20 9 0 27 -9 40
-20z m3799 -10 c0 -5 -4 -10 -10 -10 -5 0 -10 5 -10 10 0 6 5 10 10 10 6 0 10
-4 10 -10z m-260 -50 c0 -11 -4 -20 -10 -20 -5 0 -10 9 -10 20 0 11 5 20 10
20 6 0 10 -9 10 -20z m199 -4 c9 -10 8 -16 -4 -26 -13 -11 -15 -8 -15 14 0 30
3 32 19 12z m46 -5 c3 -5 1 -12 -5 -16 -5 -3 -10 1 -10 9 0 18 6 21 15 7z
m-637 -60 c3 -8 -1 -12 -9 -9 -7 2 -15 10 -17 17 -3 8 1 12 9 9 7 -2 15 -10
17 -17z m205 -3 c2 -13 8 -31 12 -40 11 -28 -16 -22 -55 12 -29 25 -33 31 -20
40 27 18 57 12 63 -12z m-43 -94 c0 -8 -5 -12 -10 -9 -6 4 -8 11 -5 16 9 14
15 11 15 -7z m-3163 -36 c-3 -8 -6 -5 -6 6 -1 11 2 17 5 13 3 -3 4 -12 1 -19z
m2898 2 c3 -5 1 -10 -4 -10 -6 0 -11 5 -11 10 0 6 2 10 4 10 3 0 8 -4 11 -10z
m-2375 -20 c0 -5 -2 -10 -4 -10 -3 0 -8 5 -11 10 -3 6 -1 10 4 10 6 0 11 -4
11 -10z m-350 -41 c-11 -36 -20 -49 -20 -28 0 25 12 59 20 59 5 0 5 -14 0 -31z
m-163 -35 c-9 -9 -28 6 -21 18 4 6 10 6 17 -1 6 -6 8 -13 4 -17z m201 -4 c3
-21 2 -22 -12 -11 -19 16 -21 44 -3 39 6 -3 14 -15 15 -28z m402 2 c0 -15 -2
-15 -10 -2 -13 20 -13 33 0 25 6 -3 10 -14 10 -23z m-430 -42 c0 -23 31 -41
38 -22 2 7 15 -2 29 -19 20 -23 23 -33 14 -42 -9 -9 -13 -6 -17 11 -7 26 -17
28 -34 7 -7 -8 -21 -15 -31 -15 -16 0 -19 8 -19 50 0 28 5 50 10 50 6 0 10 -9
10 -20z m3080 5 c0 -8 -4 -15 -10 -15 -5 0 -10 7 -10 15 0 8 5 15 10 15 6 0
10 -7 10 -15z m-55 -5 c3 -5 2 -10 -4 -10 -5 0 -13 5 -16 10 -3 6 -2 10 4 10
5 0 13 -4 16 -10z m-2065 -30 c-14 -11 -32 -20 -40 -20 -9 0 -22 -6 -29 -12
-11 -11 -13 -10 -9 2 5 16 88 63 97 54 3 -3 -5 -14 -19 -24z m2155 11 c3 -5 1
-12 -5 -16 -5 -3 -10 1 -10 9 0 18 6 21 15 7z m-1940 -21 c4 -6 -13 -10 -44
-10 -41 0 -51 -3 -51 -17 0 -9 -7 -25 -17 -35 -15 -17 -14 -18 20 -18 47 0 84
17 91 43 5 20 6 20 24 4 10 -9 24 -17 30 -17 18 0 132 -52 132 -60 0 -4 -6
-13 -14 -19 -11 -9 -14 -8 -12 6 0 10 -7 19 -18 21 -14 3 -17 0 -12 -13 3 -10
1 -24 -5 -31 -9 -11 -7 -14 10 -14 11 0 21 -4 21 -10 0 -13 -22 -13 -56 0 -24
9 -30 8 -48 -14 -27 -31 -57 -46 -93 -45 -23 0 -19 3 19 15 47 14 65 28 50 38
-4 2 -41 -2 -82 -10 -76 -14 -129 -18 -100 -7 8 3 25 16 38 29 34 33 99 53
140 42 19 -5 39 -7 45 -5 23 9 -48 28 -123 34 -64 5 -83 3 -111 -13 -19 -11
-37 -23 -40 -28 -4 -5 -15 -6 -25 -2 -16 7 -12 14 34 57 30 27 70 58 90 69 40
21 97 26 107 10z m1805 -46 c0 -17 -22 -14 -28 4 -2 7 3 12 12 12 9 0 16 -7
16 -16z m-2950 -33 c0 -23 -16 -36 -25 -21 -9 14 1 40 15 40 5 0 10 -9 10 -19z
m90 -76 c0 -8 -4 -15 -10 -15 -5 0 -10 7 -10 15 0 8 5 15 10 15 6 0 10 -7 10
-15z m515 -15 c3 -5 1 -10 -4 -10 -6 0 -11 5 -11 10 0 6 2 10 4 10 3 0 8 -4
11 -10z m-427 -108 c2 -7 -3 -12 -12 -12 -9 0 -16 7 -16 16 0 17 22 14 28 -4z
m87 -1 c7 -12 -12 -24 -25 -16 -11 7 -4 25 10 25 5 0 11 -4 15 -9z m971 -36
c-27 -21 -53 -20 -36 0 7 8 22 15 34 15 21 -1 21 -1 2 -15z m-896 1 c0 -3 -4
-8 -10 -11 -5 -3 -10 -1 -10 4 0 6 5 11 10 11 6 0 10 -2 10 -4z m1085 -6 c18
-8 17 -9 -7 -9 -15 -1 -39 -6 -54 -11 -37 -14 -42 -5 -7 14 32 17 40 18 68 6z
m-1237 -16 c26 -18 29 -34 5 -34 -18 0 -53 28 -53 42 0 13 24 9 48 -8z m1272
-37 c-1 -29 -23 -39 -131 -57 -145 -25 -147 -25 -124 0 19 20 41 28 30 10 -9
-15 31 -12 118 9 80 19 102 30 78 39 -11 4 -11 6 0 13 15 9 29 3 29 -14z
m-1110 3 c0 -5 -4 -10 -10 -10 -5 0 -10 5 -10 10 0 6 5 10 10 10 6 0 10 -4 10
-10z m315 -140 c-3 -5 -13 -10 -21 -10 -8 0 -14 5 -14 10 0 6 9 10 21 10 11 0
17 -4 14 -10z m336 -90 c-13 -11 -29 -20 -36 -20 -7 0 -20 -3 -29 -6 -9 -3
-16 -2 -16 3 0 12 60 42 85 42 19 0 19 -1 -4 -19z m1269 -60 c0 -5 -7 -10 -15
-10 -8 0 -15 5 -15 10 0 6 7 10 15 10 8 0 15 -4 15 -10z m-1605 -10 c3 -5 1
-10 -4 -10 -6 0 -11 5 -11 10 0 6 2 10 4 10 3 0 8 -4 11 -10z"/>
<path d="M671 2524 c0 -11 3 -14 6 -6 3 7 2 16 -1 19 -3 4 -6 -2 -5 -13z"/>
<path d="M2000 3045 c-10 -13 -9 -15 11 -14 13 0 33 4 43 8 18 7 18 8 -5 14
-33 9 -35 9 -49 -8z"/>
<path d="M1770 3026 c0 -9 5 -16 10 -16 6 0 10 4 10 9 0 6 -4 13 -10 16 -5 3
-10 -1 -10 -9z"/>
<path d="M2082 2959 c-37 -8 -54 -19 -28 -19 13 0 16 -5 11 -20 -7 -23 -10
-23 74 -9 58 10 101 30 101 48 0 8 -118 9 -158 0z"/>
<path d="M1219 2903 c6 -12 11 -31 11 -42 0 -14 6 -21 20 -21 29 0 25 22 -11
56 -26 23 -29 25 -20 7z"/>
<path d="M1205 2810 c4 -6 11 -8 16 -5 14 9 11 15 -7 15 -8 0 -12 -5 -9 -10z"/>
<path d="M920 2735 c0 -8 5 -15 10 -15 6 0 10 7 10 15 0 8 -4 15 -10 15 -5 0
-10 -7 -10 -15z"/>
<path d="M1005 2740 c-3 -5 -2 -10 4 -10 5 0 13 5 16 10 3 6 2 10 -4 10 -5 0
-13 -4 -16 -10z"/>
<path d="M355 2370 c3 -5 8 -10 11 -10 2 0 4 5 4 10 0 6 -5 10 -11 10 -5 0 -7
-4 -4 -10z"/>
<path d="M200 2331 c0 -33 16 -49 33 -32 7 7 7 18 -1 36 -16 34 -32 32 -32 -4z"/>
<path d="M4132 2290 c0 -19 2 -27 5 -17 2 9 2 25 0 35 -3 9 -5 1 -5 -18z"/>
<path d="M4141 2194 c0 -11 3 -14 6 -6 3 7 2 16 -1 19 -3 4 -6 -2 -5 -13z"/>
<path d="M4242 1963 c4 -22 38 -30 38 -10 0 8 -7 18 -16 21 -23 9 -26 8 -22
-11z"/>
<path d="M4385 1917 c-4 -10 -5 -21 -1 -24 10 -10 18 4 13 24 -4 17 -4 17 -12
0z"/>
<path d="M4340 1881 c0 -5 5 -13 10 -16 6 -3 10 -2 10 4 0 5 -4 13 -10 16 -5
3 -10 2 -10 -4z"/>
<path d="M4440 1644 c0 -29 -17 -66 -36 -77 -17 -10 -19 -50 -2 -45 6 2 16 13
22 24 6 10 24 36 39 56 16 21 24 38 18 38 -6 0 -11 7 -11 15 0 8 -7 15 -15 15
-9 0 -15 -10 -15 -26z"/>
<path d="M277 1618 c-14 -23 -15 -23 -45 -5 -42 24 -55 22 -71 -13 -15 -36 -2
-60 33 -60 42 0 152 72 140 91 -10 17 -42 9 -57 -13z m-67 -8 c0 -5 -4 -10 -9
-10 -6 0 -13 5 -16 10 -3 6 1 10 9 10 9 0 16 -4 16 -10z"/>
<path d="M4535 1590 c-3 -5 1 -10 10 -10 9 0 13 5 10 10 -3 6 -8 10 -10 10 -2
0 -7 -4 -10 -10z"/>
<path d="M145 1431 c-3 -5 -1 -12 5 -16 12 -7 30 2 30 16 0 12 -27 12 -35 0z"/>
<path d="M4397 1423 c-12 -11 14 -33 39 -33 29 0 31 15 5 30 -23 12 -35 13
-44 3z"/>
<path d="M4306 1394 c-9 -24 -8 -27 10 -20 10 4 22 -1 30 -11 13 -17 13 -17
14 3 0 38 -42 60 -54 28z"/>
<path d="M4206 1283 c-14 -15 -4 -31 23 -36 46 -10 55 -67 10 -67 -12 0 -19
-7 -19 -19 0 -31 17 -34 50 -9 24 17 30 28 25 45 -4 19 -1 23 20 23 38 0 30
18 -12 26 -21 4 -45 12 -53 19 -24 20 -37 25 -44 18z"/>
<path d="M4105 1179 c-10 -15 3 -25 16 -12 7 7 7 13 1 17 -6 3 -14 1 -17 -5z"/>
<path d="M4060 1141 c10 -21 30 -37 30 -26 0 14 -21 45 -31 45 -6 0 -6 -7 1
-19z"/>
<path d="M3928 993 c-21 -5 -24 -23 -4 -23 22 0 46 11 46 21 0 9 -13 10 -42 2z"/>
<path d="M583 810 c-28 -11 -30 -30 -4 -30 27 0 51 -10 51 -22 0 -5 -16 -6
-36 -2 -28 5 -36 4 -32 -7 2 -7 10 -15 18 -17 7 -3 10 0 6 7 -4 6 -2 11 3 11
6 0 11 -7 11 -15 0 -14 18 -20 48 -16 8 1 23 -6 34 -16 19 -17 20 -17 29 0 6
9 17 17 24 17 20 0 19 6 -11 45 -30 40 -51 50 -72 33 -13 -11 -15 -10 -9 5 5
13 1 17 -16 16 -12 0 -32 -4 -44 -9z m125 -67 c2 -8 -5 -13 -17 -13 -12 0 -21
6 -21 16 0 18 31 15 38 -3z"/>
<path d="M706 656 c3 -9 11 -16 16 -16 13 0 5 23 -10 28 -7 2 -10 -2 -6 -12z"/>
<path d="M3350 600 c0 -5 5 -10 10 -10 6 0 10 5 10 10 0 6 -4 10 -10 10 -5 0
-10 -4 -10 -10z"/>
<path d="M760 585 c0 -16 27 -32 37 -21 7 7 -16 36 -28 36 -5 0 -9 -7 -9 -15z"/>
<path d="M3540 582 c0 -10 27 -42 35 -42 3 0 1 10 -4 22 -8 23 -31 37 -31 20z"/>
<path d="M1239 543 c-13 -16 -12 -17 4 -4 16 13 21 21 13 21 -2 0 -10 -8 -17
-17z"/>
<path d="M3245 510 c3 -5 13 -10 21 -10 8 0 12 5 9 10 -3 6 -13 10 -21 10 -8
0 -12 -4 -9 -10z"/>
<path d="M1051 501 c-10 -7 -10 -10 -1 -16 6 -4 16 -3 22 3 13 13 -4 23 -21
13z"/>
<path d="M1195 500 c-3 -5 1 -10 9 -10 9 0 16 5 16 10 0 6 -4 10 -9 10 -6 0
-13 -4 -16 -10z"/>
<path d="M3170 450 c0 -5 7 -10 16 -10 8 0 12 5 9 10 -3 6 -10 10 -16 10 -5 0
-9 -4 -9 -10z"/>
<path d="M3175 370 c-3 -6 1 -7 9 -4 18 7 21 14 7 14 -6 0 -13 -4 -16 -10z"/>
<path d="M3650 346 c0 -9 5 -16 10 -16 6 0 10 4 10 9 0 6 -4 13 -10 16 -5 3
-10 -1 -10 -9z"/>
<path d="M3730 356 c0 -2 7 -7 16 -10 8 -3 12 -2 9 4 -6 10 -25 14 -25 6z"/>
</g>
</svg>
