<?xml version="1.0" standalone="no"?>
<!DOCTYPE svg PUBLIC "-//W3C//DTD SVG 20010904//EN"
 "http://www.w3.org/TR/2001/REC-SVG-20010904/DTD/svg10.dtd">
<svg version="1.0" xmlns="http://www.w3.org/2000/svg"
 width="467.000000pt" height="296.000000pt" viewBox="0 0 467.000000 296.000000"
 preserveAspectRatio="xMidYMid meet">

<g transform="translate(0.000000,296.000000) scale(0.100000,-0.100000)"
fill="#000000" stroke="none">
<path d="M505 2930 c-10 -11 -22 -17 -26 -14 -5 3 -9 -2 -9 -10 0 -9 -4 -16
-10 -16 -5 0 -10 -12 -10 -27 -1 -25 -2 -26 -11 -10 -8 14 -18 17 -36 12 -16
-4 -22 -2 -18 5 9 15 -7 12 -33 -6 -13 -9 -21 -21 -19 -27 2 -7 0 -21 -6 -31
-9 -19 -10 -19 -23 -1 -13 18 -14 18 -14 -3 0 -12 -4 -22 -10 -22 -5 0 -10
-13 -10 -30 0 -37 -19 -80 -37 -80 -16 0 -18 36 -2 46 8 5 6 10 -5 16 -11 6
-16 23 -16 58 0 30 -4 50 -11 50 -7 0 -9 11 -6 28 13 64 12 67 -9 70 -14 2
-23 -3 -26 -15 -3 -11 -23 -23 -54 -32 -27 -8 -57 -22 -67 -33 -18 -18 -17
-19 10 -31 20 -8 27 -18 25 -31 -2 -10 8 -42 22 -70 15 -29 29 -76 33 -105 6
-53 6 -53 -18 -46 -27 9 -74 9 -88 1 -12 -8 -20 -93 -14 -149 5 -38 11 -51 29
-60 21 -9 24 -17 24 -67 0 -31 5 -61 11 -67 8 -8 8 -13 0 -17 -11 -7 -16 -46
-6 -46 16 0 55 34 56 49 1 9 4 5 9 -9 4 -14 8 -71 9 -126 1 -76 -3 -104 -13
-113 -9 -8 -16 -8 -20 -2 -4 6 -13 8 -20 5 -8 -3 -16 2 -19 13 -3 10 -5 -6 -6
-34 -1 -46 2 -53 18 -53 11 0 23 5 26 10 15 24 27 8 22 -30 -3 -22 -1 -43 4
-46 17 -10 9 -53 -11 -64 -20 -11 -27 -44 -11 -54 5 -4 5 -21 -2 -42 -8 -28
-8 -37 2 -43 10 -7 10 -13 2 -29 -21 -38 -14 -60 21 -67 70 -14 68 -12 52 -50
-8 -19 -14 -47 -14 -63 0 -16 -3 -32 -7 -35 -10 -11 -43 24 -43 46 0 13 -5 17
-16 13 -9 -3 -22 -6 -31 -6 -11 0 -13 -7 -8 -30 4 -20 3 -30 -5 -30 -16 0 -8
-124 10 -166 8 -18 10 -39 6 -50 -8 -19 -8 -19 -15 0 -7 18 -8 18 -14 -5 -4
-13 -7 -52 -7 -86 l0 -63 37 0 37 0 -35 -36 -34 -36 40 6 c22 4 54 9 70 12
l30 6 -39 -36 c-31 -29 -37 -40 -32 -61 4 -15 2 -25 -5 -25 -10 0 -8 -31 7
-113 7 -32 36 -36 74 -10 l25 16 -25 -27 c-14 -16 -35 -32 -47 -37 -26 -10
-21 -35 8 -44 17 -6 19 -17 19 -126 l0 -119 36 0 c27 0 37 5 41 20 4 16 14 20
44 20 52 0 58 -16 9 -24 -44 -7 -50 -19 -20 -38 29 -19 24 -28 -14 -28 -19 0
-38 -5 -41 -10 -5 -8 -11 -7 -21 1 -20 16 -23 11 -35 -61 -12 -75 -4 -88 63
-101 75 -14 93 -12 94 14 1 12 5 55 9 95 7 64 9 70 21 53 9 -13 21 -17 39 -13
20 3 24 1 19 -11 -4 -11 2 -18 19 -22 14 -4 27 -15 30 -26 3 -10 11 -19 17
-19 12 0 10 15 -4 51 -5 10 2 27 18 45 20 23 27 27 37 17 7 -7 22 -13 32 -13
15 0 17 -3 8 -13 -8 -10 -7 -17 1 -25 9 -9 7 -12 -10 -12 -12 0 -22 -3 -22 -8
0 -11 49 -82 58 -83 4 0 54 -2 112 -2 96 -2 106 0 127 20 12 13 17 23 11 23
-7 0 -22 9 -34 21 -18 16 -26 19 -42 10 -15 -8 -23 -7 -32 4 -10 12 -7 15 14
21 15 3 39 3 54 -1 15 -4 36 -6 47 -6 303 9 533 12 567 7 33 -5 46 -13 55 -32
11 -23 10 -25 -5 -18 -9 4 -32 9 -49 12 -25 3 -33 0 -33 -11 0 -8 -3 -22 -6
-31 -8 -22 39 -22 56 -1 12 14 15 11 26 -22 7 -20 11 -39 9 -41 -2 -2 5 -13
15 -24 13 -14 36 -23 70 -26 l50 -5 0 39 c0 22 3 69 7 107 l6 67 43 0 c24 0
44 -4 44 -10 0 -5 11 -10 24 -10 17 0 29 9 38 27 20 42 42 40 67 -7 25 -48 27
-70 6 -70 -8 0 -15 -6 -15 -13 0 -23 22 -36 51 -30 18 3 29 1 29 -6 0 -6 -7
-11 -15 -11 -11 0 -9 -8 8 -34 12 -18 25 -32 30 -29 11 6 9 66 -4 102 -9 26
-15 30 -33 25 -17 -5 -19 -4 -8 7 10 11 63 15 217 19 176 4 207 7 221 22 17
16 17 19 1 36 -26 28 -20 35 12 16 16 -10 34 -28 40 -41 9 -20 15 -23 50 -17
24 4 41 2 45 -5 9 -14 83 -14 92 0 5 8 9 8 14 -1 6 -10 17 -8 49 6 l41 18 -21
19 c-14 13 -17 22 -10 27 6 3 10 22 9 41 -3 30 0 34 22 37 14 2 29 8 34 13 16
15 26 10 26 -10 0 -11 6 -22 13 -25 6 -3 -7 -3 -30 0 -24 3 -43 2 -43 -3 1
-12 70 -54 70 -43 0 6 7 10 16 10 14 0 16 8 10 58 -6 56 -6 57 12 34 16 -21
20 -22 31 -8 8 9 20 16 27 16 13 0 16 -9 18 -55 1 -17 8 -20 46 -20 42 0 45 2
48 28 2 16 10 31 18 34 8 3 14 14 14 24 0 33 38 23 62 -17 l21 -35 22 21 c23
22 23 22 34 2 15 -29 14 -37 -4 -22 -19 16 -34 5 -17 -12 7 -7 12 -20 12 -29
0 -9 9 -19 20 -22 16 -4 20 -12 18 -38 -3 -30 0 -33 29 -40 41 -8 71 11 75 49
4 33 27 39 70 18 37 -19 84 -21 94 -4 5 8 2 9 -9 5 -14 -5 -17 0 -17 23 0 17
5 30 10 30 6 0 10 -5 10 -11 0 -7 12 -9 36 -4 35 6 36 6 30 -19 -6 -23 -3 -26
18 -26 14 0 29 -7 34 -16 7 -12 11 -13 17 -5 4 7 0 20 -9 30 -20 22 -21 41 -1
41 9 0 20 11 25 25 11 28 31 32 50 10 9 -10 10 -30 5 -63 -14 -98 -13 -107 18
-110 25 -3 28 -7 22 -29 -13 -53 47 -72 90 -28 14 13 25 33 25 45 0 11 7 20
15 20 9 0 15 -9 15 -23 0 -23 17 -47 32 -47 4 0 8 13 8 29 0 37 24 47 49 20
13 -15 21 -17 26 -9 4 7 1 16 -6 21 -10 6 -3 13 28 25 43 17 49 34 11 34 -12
0 -30 8 -40 17 -15 13 -23 15 -37 6 -11 -7 -23 -8 -32 -2 -8 5 -30 9 -49 9
-19 0 -41 4 -49 9 -26 17 21 21 114 11 110 -12 103 -12 195 -1 41 5 125 10
186 10 81 1 115 5 130 16 10 8 34 15 52 15 62 0 123 99 72 115 -12 4 -20 15
-20 29 0 30 -10 39 -28 23 -13 -10 -14 -9 -4 10 18 32 15 38 -8 18 -19 -17
-20 -17 -20 1 0 30 12 42 54 56 45 15 72 48 80 100 6 34 5 36 -15 31 -20 -5
-21 -3 -15 21 4 18 3 25 -6 24 -8 -2 -11 8 -9 31 2 28 0 33 -14 28 -15 -6 -15
-5 0 15 8 13 15 35 15 50 0 19 9 34 30 49 16 12 34 36 41 53 19 50 21 127 4
152 -8 13 -11 25 -6 29 5 3 8 28 5 56 -4 40 -1 54 12 64 16 11 15 14 -4 33
-12 12 -22 35 -22 50 0 15 -5 33 -12 40 -9 9 -9 15 0 24 14 14 16 87 2 108 -5
9 -5 19 1 27 6 7 8 17 4 24 -4 6 -1 15 6 20 11 6 11 11 1 21 -18 18 -16 147 3
154 13 5 13 9 -1 35 -8 16 -21 29 -29 29 -14 0 -14 3 -1 22 8 13 16 46 18 74
2 34 7 50 14 47 7 -2 15 0 18 6 7 11 -77 71 -100 71 -7 0 -14 5 -14 11 0 7 14
8 40 4 38 -6 57 6 28 18 -10 4 -10 6 0 6 14 1 17 41 2 41 -5 0 -10 -4 -10 -10
0 -5 -11 -10 -25 -10 -18 0 -23 4 -19 15 4 10 0 15 -15 15 -27 0 -27 16 -1 23
27 7 26 46 -1 81 l-21 27 26 24 c33 30 36 84 6 92 -25 7 -25 11 1 39 16 17 22
37 23 76 2 54 10 78 27 78 5 0 22 8 36 17 l27 18 -40 7 c-21 4 -57 7 -79 8
-22 0 -50 6 -61 13 -82 48 -87 49 -95 35 -6 -9 -33 -13 -88 -14 -66 -2 -83 1
-96 16 -16 18 -18 17 -52 -6 -32 -22 -63 -31 -63 -19 0 2 10 13 22 24 17 17
19 23 8 36 -17 20 -40 19 -40 -2 0 -13 -3 -14 -12 -5 -19 19 -35 14 -42 -14
-6 -24 -8 -25 -30 -11 -16 11 -27 12 -34 5 -5 -5 -54 -10 -108 -11 -82 -1 -99
1 -96 13 2 11 -1 10 -11 -2 -18 -23 -27 -23 -27 1 0 29 -20 37 -27 11 -5 -17
-12 -21 -42 -18 -35 3 -36 4 -41 50 -3 26 -9 50 -12 54 -4 3 -21 -21 -37 -55
-17 -34 -35 -61 -40 -61 -15 0 -41 30 -41 46 0 19 -26 18 -34 -2 -3 -8 -14
-14 -23 -12 -10 2 -25 -5 -34 -16 -16 -19 -16 -19 -37 2 -27 27 -29 27 -35 5
-3 -11 -5 -7 -6 10 -1 18 -6 27 -17 27 -9 0 -30 12 -47 26 -28 24 -34 25 -103
19 -89 -9 -127 -1 -120 23 5 14 -1 17 -37 17 -23 0 -61 3 -84 8 -39 7 -46 5
-74 -23 -27 -26 -40 -30 -85 -30 -29 0 -56 -4 -59 -10 -4 -6 5 -10 20 -10 23
0 24 -2 15 -20 -14 -26 -21 -25 -53 4 -19 18 -28 21 -37 12 -9 -8 -14 -8 -17
2 -8 21 -26 13 -20 -8 5 -21 -1 -21 -49 -3 -14 5 -30 -15 -38 -51 -6 -26 -5
-28 8 -17 9 8 16 22 16 32 0 20 15 25 25 9 3 -6 -3 -22 -14 -36 -12 -15 -21
-33 -21 -40 0 -16 -46 -19 -55 -3 -5 6 -11 4 -19 -6 -8 -12 -20 -14 -38 -10
-21 5 -28 14 -30 38 l-4 32 -12 -27 c-14 -34 -32 -36 -32 -5 -1 21 -1 21 -21
-5 l-21 -28 -201 1 c-111 0 -226 4 -254 8 -29 4 -57 3 -61 -1 -6 -6 -17 -2
-27 8 -16 17 -18 17 -30 1 -18 -25 -25 -21 -26 16 l-1 32 -13 -30 -14 -30 -1
27 c0 15 -7 33 -15 41 -8 8 -19 34 -24 57 -11 48 -21 63 -21 31 0 -18 -4 -21
-20 -16 -11 3 -20 2 -20 -3 0 -9 -37 -25 -52 -23 -5 1 -8 -4 -8 -9 0 -6 -12
-10 -27 -10 -41 0 -103 19 -103 32 0 7 -4 7 -13 -1 -10 -8 -17 -7 -25 1 -8 8
-18 9 -36 0 -49 -22 -505 -12 -568 13 -11 4 -18 1 -21 -12 -4 -16 -6 -15 -12
5 -6 18 -10 20 -21 11 -11 -9 -14 -8 -14 5 0 17 -49 86 -61 86 -3 0 -14 -9
-24 -20z m-370 -60 c-3 -5 -10 -10 -16 -10 -5 0 -9 5 -9 10 0 6 7 10 16 10 8
0 12 -4 9 -10z m21 -74 c18 -14 18 -15 -8 -21 -15 -4 -36 -4 -48 0 -17 5 -19
10 -9 21 15 18 40 18 65 0z m298 -28 c5 -9 7 -20 4 -23 -9 -10 -59 26 -52 37
9 13 35 6 48 -14z m-324 -38 c0 -5 -2 -10 -4 -10 -3 0 -8 5 -11 10 -3 6 -1 10
4 10 6 0 11 -4 11 -10z m201 -43 c-1 -12 -15 -9 -19 4 -3 6 1 10 8 8 6 -3 11
-8 11 -12z m4189 3 c0 -5 -4 -10 -9 -10 -6 0 -13 5 -16 10 -3 6 1 10 9 10 9 0
16 -4 16 -10z m-85 -21 c12 -19 -5 -23 -22 -6 -16 16 -16 17 -1 17 9 0 20 -5
23 -11z m-4176 -46 c0 -25 -1 -25 -8 -8 -5 11 -7 23 -4 28 8 14 13 7 12 -20z
m371 -8 c0 -8 -4 -15 -10 -15 -5 0 -10 7 -10 15 0 8 5 15 10 15 6 0 10 -7 10
-15z m-520 -110 c0 -16 -27 -32 -37 -22 -3 4 -3 13 0 22 8 20 37 20 37 0z m30
-45 c0 -11 -4 -20 -10 -20 -5 0 -10 9 -10 20 0 11 5 20 10 20 6 0 10 -9 10
-20z m-10 -146 c0 -37 -3 -45 -15 -40 -9 3 -15 0 -15 -9 0 -8 -4 -15 -10 -15
-17 0 -11 42 7 55 14 10 15 16 5 27 -13 16 -7 28 15 28 9 0 13 -14 13 -46z
m180 10 c0 -8 -4 -12 -10 -9 -5 3 -10 10 -10 16 0 5 5 9 10 9 6 0 10 -7 10
-16z m-80 -74 c0 -5 -4 -10 -10 -10 -5 0 -10 5 -10 10 0 6 5 10 10 10 6 0 10
-4 10 -10z m12 -92 c-11 -11 -32 -3 -32 12 0 12 34 18 39 7 2 -5 -1 -13 -7
-19z m-17 -250 c4 -46 6 -87 5 -93 -1 -5 -4 -45 -6 -88 -3 -43 -10 -75 -15
-72 -11 8 -12 335 0 335 4 0 11 -37 16 -82z m-64 -571 c-1 -12 -15 -9 -19 4
-3 6 1 10 8 8 6 -3 11 -8 11 -12z m134 -67 c-10 -11 -20 -18 -23 -15 -7 6 18
35 31 35 5 0 2 -9 -8 -20z m-20 -260 c-10 -11 -23 -20 -28 -20 -6 0 -2 9 8 20
10 11 23 20 28 20 6 0 2 -9 -8 -20z m4225 -241 c0 -5 -4 -9 -10 -9 -5 0 -10 7
-10 16 0 8 5 12 10 9 6 -3 10 -10 10 -16z m-134 -178 c-8 -13 -76 -9 -76 4 0
17 63 33 73 17 4 -6 6 -16 3 -21z m-1716 -21 c0 -5 -4 -10 -10 -10 -5 0 -10 5
-10 10 0 6 5 10 10 10 6 0 10 -4 10 -10z m49 -4 c10 -12 8 -17 -8 -26 -19 -9
-21 -8 -21 15 0 28 12 32 29 11z m57 -13 c-10 -10 -19 5 -10 18 6 11 8 11 12
0 2 -7 1 -15 -2 -18z m137 17 c10 0 15 -4 12 -10 -3 -5 -17 -10 -30 -10 -16 0
-30 -11 -46 -37 -13 -21 -25 -31 -27 -24 -2 7 1 17 8 21 8 5 9 16 5 30 -8 27
10 43 40 35 11 -2 28 -5 38 -5z m155 -1 c24 -1 22 -3 -17 -21 -30 -14 -46 -17
-54 -9 -14 14 11 44 30 36 8 -3 27 -5 41 -6z m-258 -43 c0 -3 -4 -8 -10 -11
-5 -3 -10 -1 -10 4 0 6 5 11 10 11 6 0 10 -2 10 -4z m-970 -146 c0 -5 -4 -10
-9 -10 -6 0 -13 5 -16 10 -3 6 1 10 9 10 9 0 16 -4 16 -10z m1830 -20 c0 -5
-5 -10 -11 -10 -5 0 -7 5 -4 10 3 6 8 10 11 10 2 0 4 -4 4 -10z m-1710 -40 c0
-5 -2 -10 -4 -10 -3 0 -8 5 -11 10 -3 6 -1 10 4 10 6 0 11 -4 11 -10z m337
-17 c-9 -9 -20 -13 -24 -9 -4 4 -1 11 7 16 25 16 35 11 17 -7z m1618 7 c3 -5
-1 -10 -9 -10 -9 0 -16 5 -16 10 0 6 4 10 9 10 6 0 13 -4 16 -10z m-3186 -29
c8 -5 9 -11 3 -15 -14 -8 -43 4 -36 15 7 11 15 11 33 0z m-430 -74 c10 -26 5
-37 -16 -37 -13 0 -13 3 -3 15 10 12 10 15 -3 15 -19 0 -41 26 -32 40 9 15 44
-6 54 -33z m521 24 c0 -5 -7 -14 -15 -21 -12 -10 -15 -10 -15 2 0 8 3 18 7 21
9 10 23 9 23 -2z m2900 -1 c0 -5 -2 -10 -4 -10 -3 0 -8 5 -11 10 -3 6 -1 10 4
10 6 0 11 -4 11 -10z"/>
<path d="M60 2906 c0 -9 5 -16 10 -16 6 0 10 4 10 9 0 6 -4 13 -10 16 -5 3
-10 -1 -10 -9z"/>
<path d="M226 2881 c-4 -7 -5 -15 -2 -18 9 -9 19 4 14 18 -4 11 -6 11 -12 0z"/>
<path d="M3222 2858 c5 -15 28 -23 28 -10 0 5 -7 13 -16 16 -10 4 -14 1 -12
-6z"/>
<path d="M1606 2821 c-6 -10 22 -37 29 -29 8 7 -5 38 -15 38 -5 0 -11 -4 -14
-9z"/>
<path d="M1990 2793 l0 -38 15 29 c15 28 13 46 -6 46 -5 0 -9 -17 -9 -37z"/>
<path d="M2147 2818 c-5 -15 27 -80 36 -71 4 3 0 18 -8 34 -21 40 -18 46 10
19 14 -13 25 -19 25 -13 0 13 -33 43 -47 43 -6 0 -13 -6 -16 -12z"/>
<path d="M1655 2810 c-3 -5 1 -10 9 -10 9 0 16 5 16 10 0 6 -4 10 -9 10 -6 0
-13 -4 -16 -10z"/>
<path d="M1770 2785 c0 -39 14 -46 30 -16 12 23 3 51 -16 51 -9 0 -14 -12 -14
-35z"/>
<path d="M1700 2769 c0 -11 5 -17 10 -14 6 3 10 13 10 21 0 8 -4 14 -10 14 -5
0 -10 -9 -10 -21z"/>
<path d="M2020 2750 c0 -5 5 -10 10 -10 6 0 10 5 10 10 0 6 -4 10 -10 10 -5 0
-10 -4 -10 -10z"/>
<path d="M4500 2335 c0 -8 5 -15 10 -15 6 0 10 7 10 15 0 8 -4 15 -10 15 -5 0
-10 -7 -10 -15z"/>
<path d="M60 1830 c0 -5 9 -10 20 -10 11 0 20 5 20 10 0 6 -9 10 -20 10 -11 0
-20 -4 -20 -10z"/>
<path d="M4620 1650 c0 -19 -2 -20 -15 -10 -13 10 -15 9 -15 -9 0 -25 2 -25
41 -5 32 16 34 37 6 42 -12 2 -17 -3 -17 -18z"/>
<path d="M4570 995 c0 -20 -5 -25 -25 -25 -14 0 -25 -4 -25 -9 0 -11 53 -1 62
13 11 16 10 46 -2 46 -5 0 -10 -11 -10 -25z"/>
<path d="M4549 913 c-19 -21 -21 -25 -6 -20 10 4 25 7 33 7 8 0 14 6 14 14 0
26 -17 26 -41 -1z"/>
<path d="M4567 833 c-12 -11 -8 -48 7 -68 12 -17 14 -15 20 19 9 46 -5 71 -27
49z"/>
<path d="M4536 602 c-2 -4 -1 -14 5 -22 7 -12 9 -10 9 8 0 23 -5 28 -14 14z"/>
<path d="M4490 581 c0 -5 5 -13 10 -16 6 -3 10 -2 10 4 0 5 -4 13 -10 16 -5 3
-10 2 -10 -4z"/>
<path d="M96 486 c7 -19 58 -22 52 -3 -3 6 -17 13 -31 15 -21 3 -26 0 -21 -12z"/>
<path d="M4520 431 c0 -25 -4 -31 -22 -31 -13 0 -30 -5 -38 -10 -11 -7 -2 -10
33 -10 47 0 47 0 47 34 0 19 -4 38 -10 41 -6 4 -10 -7 -10 -24z"/>
<path d="M2800 411 c0 -5 5 -13 10 -16 6 -3 10 -2 10 4 0 5 -4 13 -10 16 -5 3
-10 2 -10 -4z"/>
<path d="M2676 341 c-4 -7 -2 -19 5 -27 9 -11 8 -18 -6 -34 -16 -18 -16 -20
-2 -20 10 0 17 5 17 11 0 7 14 10 35 7 43 -5 45 6 5 27 -16 8 -33 22 -38 31
-7 12 -11 13 -16 5z"/>
<path d="M3856 231 c-4 -7 -5 -15 -2 -18 9 -9 19 4 14 18 -4 11 -6 11 -12 0z"/>
<path d="M1230 220 c0 -5 5 -10 11 -10 5 0 7 5 4 10 -3 6 -8 10 -11 10 -2 0
-4 -4 -4 -10z"/>
<path d="M3600 215 c0 -8 7 -15 16 -15 14 0 14 3 4 15 -7 8 -14 15 -16 15 -2
0 -4 -7 -4 -15z"/>
<path d="M2000 210 c0 -5 5 -10 11 -10 5 0 7 5 4 10 -3 6 -8 10 -11 10 -2 0
-4 -4 -4 -10z"/>
<path d="M3930 214 c0 -3 6 -12 14 -20 11 -10 17 -11 22 -3 3 6 0 15 -7 20
-16 10 -29 12 -29 3z"/>
<path d="M4046 191 c-4 -7 -5 -15 -2 -18 9 -9 19 4 14 18 -4 11 -6 11 -12 0z"/>
<path d="M2075 180 c-8 -13 5 -13 25 0 13 8 13 10 -2 10 -9 0 -20 -4 -23 -10z"/>
<path d="M640 146 c0 -9 5 -16 10 -16 6 0 10 4 10 9 0 6 -4 13 -10 16 -5 3
-10 -1 -10 -9z"/>
<path d="M1880 120 c0 -5 5 -10 10 -10 6 0 10 5 10 10 0 6 -4 10 -10 10 -5 0
-10 -4 -10 -10z"/>
<path d="M1850 111 c0 -5 5 -13 10 -16 6 -3 10 -2 10 4 0 5 -4 13 -10 16 -5 3
-10 2 -10 -4z"/>
<path d="M1915 60 c-3 -5 -1 -10 4 -10 6 0 11 5 11 10 0 6 -2 10 -4 10 -3 0
-8 -4 -11 -10z"/>
<path d="M1910 20 c0 -5 7 -10 16 -10 8 0 12 5 9 10 -3 6 -10 10 -16 10 -5 0
-9 -4 -9 -10z"/>
</g>
</svg>
