<?xml version="1.0" standalone="no"?>
<!DOCTYPE svg PUBLIC "-//W3C//DTD SVG 20010904//EN"
 "http://www.w3.org/TR/2001/REC-SVG-20010904/DTD/svg10.dtd">
<svg version="1.0" xmlns="http://www.w3.org/2000/svg"
 width="406.000000pt" height="412.000000pt" viewBox="0 0 406.000000 412.000000"
 preserveAspectRatio="xMidYMid meet">

<g transform="translate(0.000000,412.000000) scale(0.100000,-0.100000)"
fill="#000000" stroke="none">
<path d="M466 4108 c22 -39 156 -257 207 -336 91 -142 101 -191 42 -206 -37
-9 -61 -50 -47 -81 15 -33 71 -62 83 -43 5 7 9 18 9 24 0 6 11 21 25 34 36 33
51 21 103 -81 23 -46 52 -99 63 -116 20 -31 21 -34 5 -58 -10 -14 -28 -31 -42
-37 -19 -9 -24 -19 -24 -46 0 -43 -34 -100 -65 -108 -23 -6 -35 -37 -35 -91 0
-16 -7 -27 -20 -30 -23 -6 -25 -16 -9 -44 14 -27 3 -55 -37 -91 -31 -29 -44
-65 -27 -81 3 -4 8 -35 10 -69 2 -34 8 -67 13 -72 6 -6 10 -22 10 -37 0 -30
26 -43 110 -55 53 -7 100 -23 100 -35 0 -15 -18 -19 -44 -9 -33 12 -55 4 -62
-25 -12 -50 31 -81 75 -53 23 14 51 4 58 -21 2 -10 16 -24 29 -30 28 -12 32
-31 7 -31 -10 0 -31 -7 -48 -16 -28 -15 -33 -14 -70 4 -57 28 -108 43 -117 34
-4 -4 -3 -26 2 -49 6 -23 9 -68 8 -100 0 -32 2 -77 6 -101 10 -57 -4 -74 -54
-66 -23 4 -40 2 -44 -5 -4 -6 -18 -11 -32 -11 -36 0 -32 36 6 58 17 9 33 27
36 38 6 25 -12 100 -31 131 -34 52 -134 36 -198 -31 -39 -43 -41 -43 -68 -28
-22 14 -30 14 -43 3 -19 -16 -21 -45 -3 -59 6 -5 31 -15 53 -21 52 -14 57 -27
34 -79 -10 -22 -16 -43 -13 -46 4 -3 21 4 40 15 27 17 36 19 48 9 22 -18 19
-83 -5 -113 -11 -14 -20 -34 -20 -45 0 -14 -9 -22 -28 -27 -34 -7 -104 -63
-99 -78 2 -6 19 -16 38 -22 30 -11 35 -17 42 -61 10 -59 21 -74 56 -74 39 0
171 -53 171 -69 0 -7 -14 -40 -32 -72 -30 -53 -31 -61 -20 -92 31 -85 4 -146
-120 -277 -24 -24 -38 -49 -38 -65 0 -32 33 -65 65 -65 47 0 75 -21 86 -66 6
-24 20 -50 30 -60 10 -9 19 -22 19 -28 0 -17 50 -36 94 -36 23 0 57 9 76 19
19 11 46 24 59 30 18 9 22 17 17 35 -7 29 16 52 41 41 10 -5 26 -7 35 -6 9 1
19 -8 23 -20 7 -23 8 -23 22 4 8 16 22 27 36 27 12 1 42 2 67 3 40 2 45 -1 48
-21 2 -13 -2 -29 -8 -37 -9 -10 -7 -15 9 -20 11 -3 46 -26 77 -50 32 -25 61
-45 66 -45 5 0 21 9 36 20 15 10 58 24 96 30 38 6 77 15 87 20 11 7 20 7 24 0
3 -5 13 -10 22 -10 14 0 15 13 10 99 -3 54 -10 108 -16 120 -20 37 7 24 60
-29 55 -55 69 -83 69 -139 0 -78 83 -98 128 -31 19 29 22 42 17 82 -8 58 10
71 51 39 l28 -22 12 31 c7 16 19 30 26 30 7 -1 40 -16 73 -34 40 -22 61 -40
63 -54 4 -26 -6 -28 -37 -6 -21 15 -24 15 -50 -10 -65 -63 -90 -177 -58 -272
7 -22 12 -45 12 -53 0 -31 32 -36 81 -12 l48 23 17 -23 c17 -23 18 -23 38 -5
12 11 21 27 21 38 0 26 32 23 59 -6 17 -18 38 -26 81 -31 45 -5 64 -13 83 -33
35 -39 41 -74 17 -105 -27 -34 -26 -56 0 -32 16 14 23 16 32 7 9 -9 9 -15 0
-24 -19 -19 -15 -48 7 -48 11 0 23 -5 26 -10 3 -6 30 -10 60 -10 30 0 57 -4
60 -10 3 -5 17 -10 31 -10 13 0 32 -5 42 -10 9 -6 53 -21 97 -34 64 -19 81
-27 83 -44 2 -12 12 -24 23 -27 13 -4 19 -15 19 -36 0 -33 2 -34 30 -17 15 10
26 10 53 0 46 -17 64 -15 97 8 26 19 29 28 36 100 3 44 8 80 9 80 2 0 16 -7
31 -15 40 -21 58 -19 90 9 50 42 35 120 -31 164 -19 12 -35 28 -35 36 0 7 -7
19 -15 26 -12 10 -18 5 -34 -27 -25 -47 -46 -92 -55 -117 -5 -14 -12 -17 -29
-11 -12 3 -51 10 -87 13 -36 4 -71 11 -77 15 -21 13 -15 52 12 77 14 13 25 29
25 36 0 16 24 24 41 13 17 -11 70 -11 87 -1 6 5 23 23 37 42 33 45 35 127 4
170 -21 27 -21 30 -5 54 24 37 20 40 -16 13 -18 -14 -52 -27 -76 -30 -24 -3
-52 -13 -62 -22 -10 -9 -29 -15 -41 -13 -19 2 -25 -3 -29 -26 -6 -34 -25 -45
-34 -20 -4 10 4 28 19 46 14 16 25 35 25 41 0 6 12 23 26 38 14 14 27 34 28
44 1 9 9 21 17 26 11 7 12 12 1 26 -21 30 -42 81 -42 103 0 16 6 20 32 20 18
0 51 -7 74 -16 39 -15 45 -15 77 1 22 10 43 32 60 63 14 26 42 69 61 97 20 27
36 60 36 72 0 19 6 23 29 23 35 0 118 70 137 117 8 18 14 63 14 101 0 61 -4
74 -31 111 -17 24 -44 50 -61 59 -63 35 -72 46 -58 72 8 14 13 59 12 109 0 69
4 90 19 110 10 13 19 36 19 52 0 42 40 82 81 82 19 0 44 -3 56 -7 18 -7 24 -2
41 38 26 57 58 68 110 38 33 -18 38 -19 67 -5 30 14 33 14 70 -11 41 -28 83
-32 150 -15 84 22 85 22 85 6 0 -8 18 -34 40 -58 l39 -44 1 133 c0 122 -1 132
-18 132 -13 0 -22 -12 -30 -38 -13 -43 -46 -80 -57 -63 -10 16 -81 13 -95 -4
-17 -20 -39 -19 -75 5 -16 11 -41 20 -55 20 -14 0 -34 7 -44 15 -11 8 -30 15
-42 15 -12 0 -40 15 -62 33 -22 17 -48 37 -58 43 -26 16 -7 34 44 41 37 5 39
4 40 -21 0 -14 5 -33 13 -42 12 -14 14 -14 21 5 4 12 15 21 25 21 26 0 63 28
73 55 6 17 20 25 49 30 42 7 71 34 71 67 0 27 -37 58 -69 58 l-29 0 5 83 c4
53 1 97 -6 120 -11 33 -16 37 -47 37 -21 0 -37 6 -40 14 -3 8 -20 18 -37 21
-18 4 -48 16 -69 27 l-36 21 -29 -21 c-16 -11 -46 -50 -67 -86 -22 -37 -43
-69 -48 -72 -15 -10 -20 3 -9 24 13 25 -8 56 -35 50 -20 -4 -21 -14 -9 -60 5
-19 3 -28 -5 -28 -7 0 -29 -13 -50 -30 -58 -46 -130 -39 -111 11 5 14 7 38 4
53 l-6 29 30 -23 c43 -31 75 -20 71 23 -3 29 -7 32 -43 37 -35 5 -40 8 -46 40
-4 19 -13 36 -19 38 -6 2 -23 14 -38 27 l-27 23 24 48 c14 29 26 78 30 122 4
40 12 77 19 81 19 11 50 92 58 149 6 49 4 56 -25 98 l-33 44 46 51 c25 28 46
56 46 61 0 5 14 41 31 80 l31 71 -20 20 c-20 20 -21 20 -49 2 -15 -10 -60 -50
-100 -90 -53 -53 -74 -82 -83 -114 -9 -33 -18 -45 -40 -53 -23 -7 -31 -18 -36
-44 -4 -24 -17 -42 -40 -58 l-34 -23 30 -28 c36 -34 37 -49 9 -73 -12 -9 -37
-30 -55 -46 -39 -32 -64 -29 -64 8 0 24 -2 25 -25 14 -18 -8 -29 -8 -36 -1
-14 14 110 152 152 171 16 6 29 14 29 17 0 2 -13 11 -30 20 -33 17 -36 32 -19
97 11 41 10 46 -26 105 -20 34 -42 66 -48 70 -16 12 -71 30 -128 42 -25 6 -53
13 -62 17 -13 4 -17 1 -17 -15 0 -29 -44 -39 -79 -18 -45 27 -64 62 -69 126
-4 60 -4 60 -33 54 -19 -3 -39 2 -62 16 -19 11 -43 21 -53 21 -10 0 -45 16
-78 37 -53 32 -62 35 -89 25 -23 -9 -34 -8 -53 5 -32 21 -165 14 -212 -11 -31
-16 -35 -16 -51 -2 -22 20 -96 46 -130 46 -37 0 -68 -24 -81 -65 -10 -29 -9
-45 6 -91 21 -66 13 -87 -34 -92 -19 -2 -36 -12 -47 -29 -12 -18 -23 -23 -38
-19 -27 7 -57 -20 -57 -50 0 -14 -8 -25 -20 -29 -11 -3 -20 -14 -20 -24 0 -9
-6 -26 -14 -37 -13 -16 -18 -17 -35 -6 -12 6 -27 12 -35 12 -17 0 -30 -30 -13
-31 7 -1 17 -2 22 -4 6 -1 16 -3 23 -3 18 -3 15 -19 -9 -52 l-22 -29 -28 21
c-27 20 -29 20 -54 4 -24 -16 -27 -16 -51 3 -24 19 -54 19 -54 0 0 -5 5 -18
12 -28 10 -17 8 -24 -15 -46 -26 -27 -47 -26 -47 1 0 19 -79 104 -96 104 -23
0 -16 -41 13 -78 20 -26 24 -39 16 -51 -14 -22 -37 -20 -41 4 -2 11 -22 38
-45 59 -43 42 -141 189 -353 528 -71 114 -133 208 -137 208 -5 0 -5 -6 -1 -12z
m1724 -323 c0 -8 -4 -15 -9 -15 -13 0 -22 16 -14 24 11 11 23 6 23 -9z m-404
-46 c10 -17 -12 -32 -37 -24 -22 7 -22 8 -4 21 23 17 32 17 41 3z m1434 -1312
c0 -7 -6 -22 -14 -33 -14 -18 -15 -18 -21 -1 -7 17 10 47 26 47 5 0 9 -6 9
-13z m-82 -20 c2 -10 -3 -17 -12 -17 -9 0 -16 2 -16 4 0 2 -3 12 -6 21 -5 13
-2 16 12 13 10 -2 20 -11 22 -21z m598 -23 c-3 -8 -10 -14 -16 -14 -14 0 -12
47 3 53 14 5 21 -17 13 -39z m-3108 -454 c3 -37 -13 -58 -35 -44 -36 22 -28
78 9 72 16 -2 24 -11 26 -28z m667 -620 c10 -11 18 -33 17 -50 0 -16 4 -32 9
-35 15 -10 10 -35 -7 -35 -8 0 -12 -4 -9 -10 3 -5 15 -10 25 -10 24 0 70 -55
70 -85 0 -12 -7 -25 -15 -29 -16 -6 -49 20 -57 45 -4 11 -10 10 -27 -5 -11
-11 -22 -17 -24 -15 -9 12 -27 131 -21 140 4 6 6 33 5 60 -1 53 6 60 34 29z
m865 -504 c0 -11 -19 -15 -25 -6 -3 5 1 10 9 10 9 0 16 -2 16 -4z"/>
<path d="M2032 4048 c-7 -7 -12 -25 -12 -40 0 -21 6 -31 26 -38 14 -6 30 -10
35 -10 10 0 12 60 3 84 -7 19 -35 21 -52 4z"/>
<path d="M2686 4035 c-15 -14 -25 -29 -22 -34 3 -5 1 -23 -5 -40 -10 -28 -9
-35 9 -54 11 -12 23 -39 27 -59 9 -49 32 -50 86 -1 31 28 42 34 49 23 9 -15
73 -8 96 11 36 30 0 109 -50 109 -13 0 -43 16 -66 35 -50 42 -86 45 -124 10z"/>
<path d="M1527 3953 c-13 -12 -7 -50 9 -63 12 -11 18 -10 31 3 14 13 14 21 5
42 -11 24 -31 32 -45 18z"/>
<path d="M2950 3675 c0 -20 4 -26 18 -23 9 2 17 12 17 23 0 11 -8 21 -17 23
-14 3 -18 -3 -18 -23z"/>
<path d="M420 3671 c0 -5 5 -13 10 -16 6 -3 10 -2 10 4 0 5 -4 13 -10 16 -5 3
-10 2 -10 -4z"/>
<path d="M250 3620 c-20 -20 -40 -61 -40 -80 0 -5 12 -22 26 -39 34 -41 72
-41 119 0 50 44 45 93 -15 124 -40 20 -66 19 -90 -5z"/>
<path d="M1255 3609 c-9 -13 3 -59 15 -59 15 0 22 20 16 46 -7 25 -20 31 -31
13z"/>
<path d="M1160 3581 c0 -25 6 -27 13 -6 4 8 2 17 -3 20 -6 4 -10 -3 -10 -14z"/>
<path d="M1070 3539 c0 -5 5 -7 10 -4 6 3 10 8 10 11 0 2 -4 4 -10 4 -5 0 -10
-5 -10 -11z"/>
<path d="M385 3340 c3 -5 11 -10 16 -10 6 0 7 5 4 10 -3 6 -11 10 -16 10 -6 0
-7 -4 -4 -10z"/>
<path d="M71 3021 c-14 -4 -26 -12 -28 -18 -4 -11 40 -15 280 -26 70 -4 77 -2
77 15 0 10 7 18 15 18 8 0 15 5 15 10 0 11 -319 12 -359 1z"/>
<path d="M735 3008 c4 -13 11 -27 16 -32 15 -17 23 3 11 29 -15 32 -36 34 -27
3z"/>
<path d="M3252 2977 c-15 -17 0 -39 22 -31 18 7 18 35 0 41 -6 2 -16 -2 -22
-10z"/>
<path d="M3845 2855 c-47 -46 -28 -145 26 -145 76 0 116 113 56 155 -31 21
-54 19 -82 -10z"/>
<path d="M3680 2860 c0 -5 5 -10 10 -10 6 0 10 5 10 10 0 6 -4 10 -10 10 -5 0
-10 -4 -10 -10z"/>
<path d="M3650 2814 c0 -8 5 -12 10 -9 6 4 8 11 5 16 -9 14 -15 11 -15 -7z"/>
<path d="M3455 2780 c-7 -12 2 -30 16 -30 5 0 9 9 9 20 0 21 -15 27 -25 10z"/>
<path d="M3340 2745 c0 -8 5 -15 10 -15 6 0 10 7 10 15 0 8 -4 15 -10 15 -5 0
-10 -7 -10 -15z"/>
<path d="M608 2723 c7 -3 16 -2 19 1 4 3 -2 6 -13 5 -11 0 -14 -3 -6 -6z"/>
<path d="M597 2523 c-14 -13 -6 -24 15 -21 27 4 36 28 11 28 -11 0 -23 -3 -26
-7z"/>
<path d="M650 2364 c0 -8 5 -12 10 -9 6 4 8 11 5 16 -9 14 -15 11 -15 -7z"/>
<path d="M652 2299 c2 -7 10 -15 17 -17 8 -3 12 1 9 9 -2 7 -10 15 -17 17 -8
3 -12 -1 -9 -9z"/>
<path d="M198 2219 c-22 -12 -23 -52 -3 -69 17 -15 46 -6 71 21 18 21 18 21
-5 40 -26 21 -38 23 -63 8z"/>
<path d="M3820 2200 c0 -5 5 -10 10 -10 6 0 10 5 10 10 0 6 -4 10 -10 10 -5 0
-10 -4 -10 -10z"/>
<path d="M3707 2183 c-12 -11 -8 -23 8 -23 8 0 15 7 15 15 0 16 -12 20 -23 8z"/>
<path d="M3860 2144 c0 -8 5 -12 10 -9 6 4 8 11 5 16 -9 14 -15 11 -15 -7z"/>
<path d="M730 2035 c-19 -23 -1 -39 21 -19 10 9 19 21 19 26 0 13 -27 9 -40
-7z"/>
<path d="M3500 1945 c0 -10 7 -15 18 -13 21 4 19 22 -2 26 -10 2 -16 -3 -16
-13z"/>
<path d="M0 1936 c0 -9 7 -16 16 -16 17 0 14 22 -4 28 -7 2 -12 -3 -12 -12z"/>
<path d="M335 1900 c4 -6 11 -8 16 -5 14 9 11 15 -7 15 -8 0 -12 -5 -9 -10z"/>
<path d="M470 1900 c0 -5 5 -10 10 -10 6 0 10 5 10 10 0 6 -4 10 -10 10 -5 0
-10 -4 -10 -10z"/>
<path d="M3920 1900 c0 -5 5 -10 10 -10 6 0 10 5 10 10 0 6 -4 10 -10 10 -5 0
-10 -4 -10 -10z"/>
<path d="M210 1836 c-17 -22 -8 -57 21 -78 24 -18 28 -19 62 -4 42 17 50 51
19 79 -23 21 -85 22 -102 3z"/>
<path d="M180 1690 c-53 -22 -93 -25 -120 -8 -29 19 -60 -14 -60 -64 0 -36 2
-39 23 -32 12 3 34 13 49 20 36 18 82 18 119 -2 17 -8 42 -14 57 -12 23 3 27
8 30 40 2 27 -3 43 -17 57 -25 25 -24 25 -81 1z"/>
<path d="M3635 1659 c-11 -17 1 -21 15 -4 8 9 8 15 2 15 -6 0 -14 -5 -17 -11z"/>
<path d="M84 1575 c-7 -18 3 -35 21 -35 18 0 26 25 12 39 -15 15 -27 14 -33
-4z"/>
<path d="M225 1460 c-3 -5 -9 -33 -12 -61 -5 -43 -3 -54 12 -65 28 -21 69 -17
93 9 41 43 22 100 -36 113 -15 3 -32 7 -39 9 -7 2 -15 0 -18 -5z"/>
<path d="M3490 1425 c-7 -9 -10 -18 -7 -21 7 -8 47 14 47 26 0 15 -26 12 -40
-5z"/>
<path d="M480 1280 c-8 -15 -8 -20 3 -20 14 0 37 19 37 32 0 16 -30 7 -40 -12z"/>
<path d="M3333 1147 c-24 -16 -32 -30 -33 -52 0 -19 -11 -40 -30 -60 -79 -82
-21 -215 94 -215 30 0 45 7 72 34 28 28 34 42 34 76 0 51 -27 98 -69 123 -33
19 -41 37 -17 37 20 0 27 26 16 55 -11 30 -24 30 -67 2z"/>
<path d="M320 896 c-18 -23 -8 -61 17 -64 30 -4 53 39 33 63 -16 19 -34 19
-50 1z"/>
<path d="M2935 901 c-19 -8 -19 -8 4 -20 25 -14 49 -2 37 18 -8 12 -13 13 -41
2z"/>
<path d="M3000 754 c0 -9 5 -14 12 -12 18 6 21 28 4 28 -9 0 -16 -7 -16 -16z"/>
<path d="M417 713 c-15 -7 -36 -31 -47 -53 -11 -22 -34 -49 -50 -62 -34 -25
-41 -75 -14 -102 20 -21 40 -20 78 3 17 11 47 22 68 26 51 10 80 44 86 103 5
53 -1 61 -59 85 -30 12 -39 13 -62 0z"/>
<path d="M1075 660 c-10 -16 4 -30 31 -30 27 0 33 24 8 34 -22 8 -32 8 -39 -4z"/>
<path d="M640 585 c0 -8 5 -15 10 -15 6 0 10 7 10 15 0 8 -4 15 -10 15 -5 0
-10 -7 -10 -15z"/>
<path d="M3218 584 c-7 -6 5 -54 21 -81 9 -15 10 -12 11 19 0 54 -14 81 -32
62z"/>
<path d="M970 481 c0 -11 5 -23 10 -26 6 -4 10 5 10 19 0 14 -4 26 -10 26 -5
0 -10 -9 -10 -19z"/>
<path d="M1764 485 c-9 -23 3 -45 26 -45 11 0 23 -7 26 -15 4 -8 10 -15 15
-15 13 0 11 64 -3 78 -17 17 -57 15 -64 -3z"/>
<path d="M3310 435 c-14 -38 3 -65 41 -65 22 0 32 6 41 26 16 34 0 58 -41 62
-26 3 -33 -1 -41 -23z"/>
<path d="M2226 406 c-32 -55 -33 -71 -1 -92 21 -14 30 -14 55 -4 17 7 30 14
30 17 0 2 -9 21 -20 43 -11 22 -20 46 -20 54 0 32 -19 24 -44 -18z"/>
<path d="M1752 388 c2 -12 10 -23 18 -23 22 0 19 39 -3 43 -15 3 -18 -1 -15
-20z"/>
<path d="M1330 390 c0 -5 7 -10 15 -10 8 0 15 5 15 10 0 6 -7 10 -15 10 -8 0
-15 -4 -15 -10z"/>
<path d="M1270 380 c0 -5 5 -10 10 -10 6 0 10 5 10 10 0 6 -4 10 -10 10 -5 0
-10 -4 -10 -10z"/>
<path d="M104 356 c-3 -8 -4 -29 -2 -48 3 -28 7 -33 31 -36 35 -4 57 13 57 44
0 40 -73 74 -86 40z"/>
<path d="M806 325 c-34 -31 -34 -74 0 -114 32 -38 43 -39 76 -3 35 37 42 65
24 100 -25 48 -60 54 -100 17z"/>
<path d="M2010 329 c0 -5 5 -7 10 -4 6 3 10 8 10 11 0 2 -4 4 -10 4 -5 0 -10
-5 -10 -11z"/>
<path d="M2960 330 c0 -5 5 -10 11 -10 5 0 7 5 4 10 -3 6 -8 10 -11 10 -2 0
-4 -4 -4 -10z"/>
<path d="M312 238 c2 -12 11 -24 21 -26 14 -3 18 1 15 20 -2 12 -11 24 -21 26
-14 3 -18 -1 -15 -20z"/>
<path d="M7 203 c-4 -3 -7 -31 -7 -61 0 -48 2 -53 16 -41 27 22 42 62 33 87
-8 21 -29 29 -42 15z"/>
<path d="M3376 151 c-4 -7 -5 -15 -2 -18 9 -9 19 4 14 18 -4 11 -6 11 -12 0z"/>
<path d="M2244 75 c-14 -21 -15 -31 -6 -50 11 -25 13 -25 137 -25 69 0 125 3
125 8 0 19 -41 71 -60 77 -13 4 -37 0 -60 -10 -37 -17 -39 -17 -68 4 -39 27
-48 26 -68 -4z"/>
<path d="M2686 72 c-3 -6 -2 -13 4 -17 5 -3 10 -17 10 -31 0 -23 3 -24 65 -24
50 0 65 3 65 14 0 23 -41 46 -80 46 -20 0 -41 5 -47 11 -7 7 -13 7 -17 1z"/>
</g>
</svg>
