<?xml version="1.0" standalone="no"?>
<!DOCTYPE svg PUBLIC "-//W3C//DTD SVG 20010904//EN"
 "http://www.w3.org/TR/2001/REC-SVG-20010904/DTD/svg10.dtd">
<svg version="1.0" xmlns="http://www.w3.org/2000/svg"
 width="497.000000pt" height="509.000000pt" viewBox="0 0 497.000000 509.000000"
 preserveAspectRatio="xMidYMid meet">

<g transform="translate(0.000000,509.000000) scale(0.100000,-0.100000)"
fill="#000000" stroke="none">
<path d="M2170 4980 c0 -5 4 -10 9 -10 6 0 13 5 16 10 3 6 -1 10 -9 10 -9 0
-16 -4 -16 -10z"/>
<path d="M2070 4950 c-8 -5 -12 -11 -9 -14 3 -3 14 1 25 9 21 16 8 20 -16 5z"/>
<path d="M2609 4926 c-3 -4 -48 -8 -100 -11 -52 -2 -125 -11 -164 -21 -38 -9
-106 -20 -150 -24 -44 -4 -96 -13 -115 -18 -19 -6 -57 -13 -83 -17 -41 -5 -47
-9 -42 -25 5 -16 -2 -19 -67 -23 -86 -6 -182 -32 -256 -71 -53 -27 -85 -28
-48 -1 11 9 16 20 12 30 -5 15 -9 14 -35 -4 -15 -11 -31 -18 -34 -15 -3 3 -24
10 -47 15 -43 10 -73 3 -49 -12 9 -5 4 -13 -19 -26 -44 -25 -40 -33 9 -22 23
6 43 8 46 6 2 -3 -47 -29 -109 -59 -131 -64 -184 -102 -368 -264 -74 -65 -177
-152 -228 -193 -94 -74 -121 -105 -102 -116 5 -3 10 -10 10 -15 0 -11 -137
-150 -200 -203 l-45 -38 48 27 c26 14 51 24 54 20 3 -3 -16 -38 -42 -78 -78
-118 -98 -155 -175 -328 -74 -170 -124 -294 -166 -414 l-24 -68 25 6 c30 8 42
-10 21 -33 -9 -10 -16 -22 -16 -27 0 -5 -12 -27 -26 -47 -34 -50 -25 -57 15
-12 l31 36 0 -28 c-1 -15 -7 -64 -15 -108 -28 -151 -46 -332 -36 -359 6 -13
20 -96 31 -183 19 -142 30 -184 76 -303 7 -19 13 -45 14 -57 0 -11 9 -45 20
-75 10 -29 24 -71 30 -94 5 -22 26 -61 45 -86 20 -25 49 -82 64 -126 26 -73
27 -83 14 -102 -13 -19 -12 -24 17 -58 93 -110 175 -202 181 -202 3 0 42 -33
86 -73 44 -41 99 -84 121 -97 33 -19 41 -28 36 -43 -4 -14 12 -37 69 -93 41
-41 82 -74 92 -74 9 0 28 -9 42 -20 14 -11 32 -20 40 -20 10 0 11 -5 4 -18 -6
-11 -6 -23 -1 -28 4 -5 10 -20 12 -34 4 -30 36 -39 54 -15 12 16 14 16 25 -9
10 -20 45 -43 153 -95 141 -69 208 -109 159 -96 -36 10 -28 -17 13 -43 48 -31
109 -52 120 -42 5 5 23 10 39 12 l30 3 -42 23 c-41 21 -63 53 -25 36 9 -4 44
-17 78 -28 33 -12 78 -33 100 -47 22 -15 59 -36 83 -49 42 -21 46 -21 78 -6
32 15 35 15 61 -4 25 -18 88 -41 187 -69 24 -6 54 -8 75 -3 l35 8 -63 23
c-110 41 -81 58 36 21 73 -23 146 -27 140 -8 -3 7 -24 18 -49 25 -59 17 -119
44 -119 54 0 5 10 5 23 0 12 -5 56 -14 97 -21 41 -7 83 -17 93 -22 17 -9 17
-11 2 -28 -15 -16 -13 -18 29 -29 24 -6 87 -16 140 -23 85 -11 97 -10 113 4
12 11 40 18 77 20 47 2 61 7 70 23 17 30 27 35 81 35 72 0 91 17 29 24 -100
13 -139 21 -136 31 1 6 19 9 40 8 20 -1 85 -3 145 -5 75 -2 103 -6 93 -13 -8
-5 -23 -15 -33 -22 -15 -10 -10 -12 32 -11 62 0 90 9 90 27 0 9 19 19 48 27
27 7 56 19 65 27 9 8 37 17 61 20 24 3 57 15 74 28 26 19 34 20 65 11 44 -14
86 0 165 52 62 41 70 51 35 41 -21 -5 -22 -4 -4 7 10 7 52 39 93 71 42 31 81
57 87 57 18 0 138 102 260 220 99 96 280 326 315 400 17 37 -31 -21 -137 -165
-98 -132 -173 -212 -236 -253 -22 -14 -63 -44 -91 -67 -116 -94 -260 -195
-279 -195 -8 0 -49 -18 -90 -40 -94 -49 -328 -124 -362 -116 -24 6 -24 7 -7
33 17 26 17 27 0 20 -11 -4 -30 -10 -43 -13 -14 -4 -29 -15 -35 -25 -8 -15
-14 -17 -28 -9 -10 5 -42 7 -70 3 -28 -3 -51 -2 -50 3 0 9 126 74 142 74 5 0
5 -5 2 -10 -22 -36 139 41 200 95 37 33 37 35 10 22 -16 -8 -41 -18 -54 -22
-22 -7 -23 -5 -17 20 8 30 4 29 -51 -11 -17 -13 -44 -29 -58 -34 -24 -9 -31
-7 -52 16 -13 14 -23 27 -21 29 2 1 41 28 88 60 47 32 99 70 115 85 17 15 51
34 77 44 39 14 88 42 180 101 8 6 39 29 68 53 28 23 58 42 66 42 8 0 41 19 72
42 185 134 272 203 272 215 0 7 11 20 26 29 30 21 54 64 54 100 0 17 17 46 48
83 27 31 61 79 77 106 15 28 39 67 53 88 41 61 17 54 -58 -17 -68 -64 -101
-84 -82 -50 17 31 137 164 147 164 12 0 67 106 85 161 6 21 19 86 29 145 15
91 16 112 5 124 -7 9 -17 27 -22 40 -9 23 -10 21 -16 -20 -12 -73 -36 -140
-52 -140 -18 0 -18 7 0 59 21 57 33 166 17 157 -16 -10 -14 24 5 80 12 36 13
48 4 54 -10 6 -9 19 4 56 12 37 16 87 16 229 0 100 3 184 6 188 4 3 14 -3 23
-14 11 -14 30 -20 61 -22 l45 -2 1 95 c1 53 7 115 14 138 9 36 14 42 31 37 16
-5 19 -2 19 25 0 17 5 41 11 52 7 13 7 24 1 30 -5 5 -8 27 -5 48 4 31 -1 50
-28 97 -85 150 -106 199 -112 264 -6 69 -58 207 -96 255 -11 15 -21 35 -21 45
0 9 -11 30 -24 46 -13 15 -31 45 -39 66 -9 20 -64 87 -122 148 -58 61 -113
127 -123 147 -10 21 -30 43 -48 52 -17 8 -48 29 -70 46 -21 17 -55 40 -75 52
-19 12 -44 31 -54 43 -11 11 -35 27 -54 35 -19 8 -58 29 -85 48 -28 18 -67 38
-86 45 -19 7 -84 37 -145 66 -131 62 -144 67 -305 110 -164 43 -208 52 -375
71 -77 9 -156 18 -175 21 -19 2 -38 2 -41 -1z m-239 -111 c0 -2 -13 -11 -30
-20 -32 -17 -171 -22 -154 -6 17 17 184 41 184 26z m150 -45 c0 -5 -7 -10 -16
-10 -8 0 -12 5 -9 10 3 6 10 10 16 10 5 0 9 -4 9 -10z m275 -1 c39 -5 99 -14
135 -19 226 -29 332 -62 482 -151 36 -21 72 -39 80 -39 18 0 78 -38 78 -49 0
-5 -21 -8 -47 -7 -59 1 -64 -14 -10 -34 22 -8 39 -19 36 -25 -6 -14 -121 -10
-149 5 -12 6 -50 16 -83 20 -47 7 -75 18 -117 48 -86 61 -248 138 -349 167
-184 51 -228 76 -161 88 14 2 27 5 30 5 3 1 37 -3 75 -9z m-655 -44 c-7 -8
-19 -15 -28 -15 -8 0 -12 -3 -9 -6 5 -6 51 4 150 32 31 9 18 -14 -15 -25 -46
-16 -27 -25 23 -10 30 9 44 10 46 2 3 -7 46 -9 136 -6 89 3 137 1 147 -7 10
-8 11 -13 4 -16 -6 -3 -19 -10 -28 -17 -15 -11 -11 -13 26 -13 63 -1 190 -22
202 -34 6 -6 -65 -7 -196 -3 -166 5 -222 3 -299 -11 -115 -20 -206 -22 -324
-6 -86 11 -144 9 -229 -6 -27 -4 -37 -3 -32 4 4 6 22 14 40 17 18 4 59 24 90
45 41 28 79 44 134 55 42 9 91 21 107 25 17 5 38 9 49 9 15 1 16 -2 6 -14z
m-535 -175 c-10 -11 -20 -18 -23 -15 -7 6 18 35 31 35 5 0 2 -9 -8 -20z m-192
-28 c-11 -15 -29 -29 -39 -30 -15 -3 -11 4 15 32 39 41 55 40 24 -2z m287 23
c-10 -13 -9 -15 11 -15 24 -1 23 -1 -6 -25 -16 -14 -36 -25 -44 -25 -18 0
-108 -55 -141 -85 -28 -26 -80 -43 -80 -27 0 19 169 162 193 162 12 1 33 7 47
15 32 18 35 18 20 0z m-457 -127 c-34 -35 -63 -74 -65 -87 -2 -18 -12 -27 -33
-33 -21 -5 -93 -72 -235 -217 -113 -115 -220 -228 -239 -251 l-35 -41 -11 33
c-13 38 -9 54 10 38 18 -15 68 29 112 98 47 73 360 384 463 459 47 34 87 63
90 63 2 0 -23 -28 -57 -62z m2632 2 c3 -5 -1 -10 -9 -10 -8 0 -18 5 -21 10 -3
6 1 10 9 10 8 0 18 -4 21 -10z m-2566 -146 c-24 -25 -52 -50 -62 -56 -16 -8
-17 -7 -8 10 13 24 103 103 110 96 3 -2 -15 -25 -40 -50z m2766 -64 c3 -6 0
-10 -7 -10 -15 0 -38 19 -38 32 0 10 36 -8 45 -22z m189 -203 c37 -48 33 -76
-6 -44 -18 14 -48 58 -48 69 0 20 31 5 54 -25z m103 -29 c14 -18 22 -68 11
-68 -5 0 -11 14 -14 30 -4 17 -10 30 -15 30 -5 0 -9 5 -9 10 0 14 16 12 27 -2z
m-164 -89 c32 -22 57 -42 57 -44 0 -5 -55 11 -72 21 -22 12 -58 47 -58 56 0
15 17 8 73 -33z m225 -93 c23 -45 27 -66 14 -66 -7 0 -52 90 -52 104 0 19 19
0 38 -38z m-3912 -114 c-14 -28 -31 -54 -37 -58 -14 -8 -12 -3 25 64 37 66 46
61 12 -6z m3641 -56 c55 -60 118 -174 159 -287 14 -41 44 -112 65 -159 38 -86
51 -150 74 -382 7 -60 5 -68 -10 -68 -9 0 -25 -10 -35 -22 -29 -36 -33 -15
-11 55 19 62 19 71 5 175 -15 121 -39 206 -107 390 -55 148 -87 204 -168 301
-70 83 -48 81 28 -3z m83 -7 c0 -6 20 -38 44 -72 24 -34 59 -91 77 -126 18
-35 39 -65 46 -68 17 -7 17 -44 -1 -68 -12 -16 -16 -17 -30 -6 -9 7 -16 23
-16 36 0 12 -31 84 -70 159 -66 130 -83 175 -60 161 6 -3 10 -11 10 -16z m296
-139 c8 0 14 -5 14 -11 0 -6 9 -22 20 -36 22 -28 26 -53 10 -53 -6 0 -14 8
-17 18 -4 9 -17 27 -30 39 -13 12 -23 32 -22 45 0 13 3 17 6 11 2 -7 11 -13
19 -13z m92 -149 c3 -8 -1 -12 -9 -9 -7 2 -15 10 -17 17 -3 8 1 12 9 9 7 -2
15 -10 17 -17z m-4319 -80 c-7 -23 -14 -39 -16 -37 -3 2 1 23 8 45 7 23 14 39
16 37 3 -2 -1 -23 -8 -45z m4175 -29 c40 -80 50 -128 32 -164 -20 -39 -20 -37
4 -31 16 4 24 -4 41 -42 23 -53 19 -67 -12 -39 -21 19 -22 19 -15 -3 10 -30
-9 -30 -29 0 -24 37 -69 327 -50 327 2 0 16 -21 29 -48z m-44 -580 c0 -12 -60
-82 -71 -82 -17 0 -9 19 22 55 30 33 49 44 49 27z m-3604 -1444 c60 -56 65
-77 8 -32 -20 16 -49 38 -65 50 -26 19 -29 34 -7 34 5 0 34 -23 64 -52z m1103
-159 c35 -6 94 -25 132 -45 38 -19 90 -37 114 -41 46 -6 63 -23 23 -23 -13 0
-89 9 -169 19 -153 20 -204 37 -248 85 l-24 25 54 -5 c30 -3 83 -10 118 -15z
m631 -198 c0 -7 -91 -21 -141 -21 -29 0 -22 18 9 23 52 8 132 7 132 -2z m803
-92 c-6 -6 -30 -13 -54 -15 l-44 -4 30 14 c36 18 84 21 68 5z m-103 -60 c0 -6
-6 -9 -13 -6 -8 3 -40 -1 -73 -9 -67 -16 -153 -19 -138 -5 25 25 224 42 224
20z m-69 -140 c8 -16 6 -18 -20 -13 -16 4 -31 1 -35 -5 -8 -13 -116 -15 -116
-2 0 12 17 18 75 26 25 4 49 14 52 22 6 16 27 2 44 -28z m144 -4 c-16 -14 -34
-25 -38 -25 -16 0 0 25 24 37 39 20 46 14 14 -12z m-738 -261 c-3 -3 -12 -4
-19 -1 -8 3 -5 6 6 6 11 1 17 -2 13 -5z m122 -20 c2 -2 2 -7 -2 -10 -8 -9 -47
6 -47 17 0 9 37 3 49 -7z m166 -24 c4 -6 -5 -10 -19 -10 -14 0 -26 5 -26 10 0
6 9 10 19 10 11 0 23 -4 26 -10z m-265 -10 c0 -5 -21 -10 -47 -10 -35 0 -44 3
-33 10 20 13 80 13 80 0z"/>
<path d="M2230 4910 c0 -5 6 -10 14 -10 8 0 18 5 21 10 3 6 -3 10 -14 10 -12
0 -21 -4 -21 -10z"/>
<path d="M2051 4899 c-13 -5 -21 -12 -18 -15 9 -9 57 5 57 16 0 12 -7 12 -39
-1z"/>
<path d="M1555 4851 c-3 -5 -1 -12 5 -16 12 -7 30 2 30 16 0 12 -27 12 -35 0z"/>
<path d="M1817 4849 c-20 -12 -23 -29 -3 -29 17 0 40 26 29 33 -5 3 -16 1 -26
-4z"/>
<path d="M1480 4789 c0 -5 5 -7 10 -4 6 3 10 8 10 11 0 2 -4 4 -10 4 -5 0 -10
-5 -10 -11z"/>
<path d="M1338 4663 c7 -3 16 -2 19 1 4 3 -2 6 -13 5 -11 0 -14 -3 -6 -6z"/>
<path d="M4590 3607 c0 -14 4 -28 9 -31 5 -3 12 -21 15 -40 8 -42 31 -65 40
-40 10 26 -11 88 -39 114 l-25 23 0 -26z"/>
<path d="M4756 3343 c7 -21 13 -46 14 -55 0 -18 18 -34 27 -25 5 6 -42 117
-50 117 -3 0 1 -17 9 -37z"/>
<path d="M4742 3223 c2 -12 12 -18 28 -18 36 0 33 29 -3 33 -23 3 -28 0 -25
-15z"/>
<path d="M4720 3200 c0 -5 5 -10 11 -10 5 0 7 5 4 10 -3 6 -8 10 -11 10 -2 0
-4 -4 -4 -10z"/>
<path d="M4807 2775 c31 -444 -35 -921 -167 -1220 -73 -165 -102 -245 -89
-245 33 0 85 111 162 345 63 191 108 386 138 594 15 104 7 331 -16 485 -24
155 -37 175 -28 41z"/>
<path d="M4640 2811 c0 -6 5 -13 10 -16 6 -3 10 1 10 9 0 9 -4 16 -10 16 -5 0
-10 -4 -10 -9z"/>
<path d="M4590 2453 c0 -16 -11 -52 -25 -82 -14 -30 -23 -56 -21 -59 3 -2 0
-14 -5 -25 -8 -15 -8 -22 2 -28 21 -13 29 -11 29 10 0 11 9 40 20 66 21 48 27
145 10 145 -5 0 -10 -12 -10 -27z"/>
<path d="M3673 875 c-9 -25 2 -27 22 -5 17 18 17 20 1 20 -9 0 -19 -7 -23 -15z"/>
<path d="M2010 190 c0 -5 7 -10 15 -10 8 0 15 5 15 10 0 6 -7 10 -15 10 -8 0
-15 -4 -15 -10z"/>
<path d="M2380 150 c20 -13 33 -13 25 0 -3 6 -14 10 -23 10 -15 0 -15 -2 -2
-10z"/>
<path d="M2300 140 c20 -13 43 -13 35 0 -3 6 -16 10 -28 10 -18 0 -19 -2 -7
-10z"/>
<path d="M2510 130 c0 -5 5 -10 10 -10 6 0 10 5 10 10 0 6 -4 10 -10 10 -5 0
-10 -4 -10 -10z"/>
<path d="M2370 120 c0 -5 7 -10 16 -10 8 0 12 5 9 10 -3 6 -10 10 -16 10 -5 0
-9 -4 -9 -10z"/>
</g>
</svg>
