<?xml version="1.0" standalone="no"?>
<!DOCTYPE svg PUBLIC "-//W3C//DTD SVG 20010904//EN"
 "http://www.w3.org/TR/2001/REC-SVG-20010904/DTD/svg10.dtd">
<svg version="1.0" xmlns="http://www.w3.org/2000/svg"
 width="505.000000pt" height="430.000000pt" viewBox="0 0 505.000000 430.000000"
 preserveAspectRatio="xMidYMid meet">

<g transform="translate(0.000000,430.000000) scale(0.100000,-0.100000)"
fill="#000000" stroke="none">
<path d="M2720 4110 c-8 -5 -28 -10 -45 -10 -48 0 -73 -10 -78 -31 -6 -23 -47
-26 -47 -4 0 8 -4 15 -9 15 -5 0 -11 -7 -15 -15 -3 -10 -19 -15 -46 -15 -33 0
-40 -3 -40 -20 0 -25 -7 -25 -34 -1 -75 68 -95 81 -127 81 -55 0 -346 -39
-454 -61 -222 -45 -615 -249 -786 -409 -24 -22 -47 -40 -52 -40 -4 0 -76 -66
-159 -147 -136 -134 -307 -331 -358 -416 -34 -55 -70 -131 -70 -149 0 -9 -13
-44 -29 -78 -16 -34 -33 -81 -36 -104 -4 -22 -15 -50 -25 -61 -27 -29 -38 -65
-38 -117 1 -29 -7 -59 -22 -86 -20 -35 -22 -46 -12 -67 7 -14 20 -25 31 -25
27 0 33 -13 17 -36 -14 -18 -15 -18 -33 -1 -21 18 -43 23 -43 8 0 -11 61 -71
72 -71 4 0 8 -7 8 -15 0 -9 -9 -15 -21 -15 -16 0 -20 -4 -14 -17 3 -10 9 -31
12 -47 8 -36 -10 -28 -32 15 -10 18 -20 27 -27 22 -9 -5 -9 -8 0 -11 8 -2 7
-11 -5 -29 -14 -21 -15 -32 -6 -66 10 -35 9 -45 -4 -60 -13 -14 -14 -22 -5
-43 7 -13 12 -36 12 -49 0 -13 5 -27 10 -30 6 -3 10 3 10 14 0 11 4 22 9 25
12 8 33 -71 26 -94 -5 -16 -2 -20 14 -20 25 0 28 -26 5 -58 -20 -28 -42 -28
-53 1 -8 20 -9 19 -20 -18 -14 -50 -14 -125 -1 -125 6 0 10 5 10 10 0 6 5 10
11 10 8 0 8 -5 -1 -15 -13 -16 -7 -45 9 -45 6 0 13 11 17 25 8 34 25 27 39
-15 13 -40 27 -47 45 -25 11 13 11 21 2 36 -30 47 -6 69 36 34 16 -14 37 -25
46 -25 12 0 16 -9 16 -34 0 -53 -11 -96 -25 -96 -7 0 -19 -10 -27 -22 -17 -25
-38 -17 -38 15 0 12 -4 29 -10 37 -16 25 -24 -17 -12 -64 30 -114 59 -179 86
-193 15 -8 33 -31 42 -53 19 -47 27 -50 40 -13 l9 26 38 -54 c21 -30 49 -69
62 -88 14 -19 25 -44 25 -56 0 -12 16 -43 35 -68 39 -52 42 -59 18 -50 -13 5
-13 0 6 -33 12 -21 25 -52 29 -68 6 -22 17 -32 51 -43 24 -8 46 -12 49 -8 3 3
0 20 -6 38 -17 48 -15 59 11 55 19 -3 22 -8 19 -38 -4 -46 13 -82 49 -109 20
-15 29 -30 29 -50 0 -35 8 -43 30 -29 18 11 22 9 70 -34 12 -10 16 -24 13 -37
-6 -24 5 -22 64 7 27 13 34 14 48 2 15 -13 15 -15 -7 -31 -18 -14 -21 -20 -11
-30 10 -10 16 -10 25 -1 18 18 54 14 107 -12 37 -19 51 -22 60 -13 10 9 19 4
43 -25 22 -29 37 -38 60 -38 34 0 126 -28 134 -41 7 -12 61 -11 69 1 9 14 48
12 70 -4 17 -13 17 -14 -11 -27 -16 -8 -30 -22 -32 -32 -3 -14 5 -17 52 -17
31 0 75 5 99 12 30 8 58 8 88 2 40 -8 44 -12 47 -41 3 -30 6 -33 36 -33 39 0
50 8 34 27 -17 21 9 34 57 28 99 -13 297 -25 306 -20 5 4 16 21 23 38 l13 32
14 -30 c7 -16 15 -32 16 -34 2 -3 21 -4 42 -3 22 2 42 -2 45 -7 6 -9 -52 -31
-81 -31 -20 0 -15 -18 6 -30 41 -21 206 -2 224 27 10 16 39 17 54 2 9 -9 20
-5 43 15 25 20 42 26 80 26 53 0 82 24 73 58 -3 14 8 22 49 35 29 10 61 20 71
24 21 7 24 -22 2 -31 -19 -7 -20 -26 -1 -26 7 0 21 11 29 24 11 16 40 32 84
46 37 13 93 35 124 51 l56 28 12 -26 c10 -21 16 -24 39 -18 49 12 74 34 68 60
-5 20 1 28 38 50 24 14 81 42 127 61 46 20 104 53 128 73 23 20 53 43 66 51
12 8 70 49 129 90 58 41 126 86 151 98 24 13 72 55 106 93 34 38 64 69 69 69
12 0 154 143 180 182 28 43 40 48 40 17 0 -18 3 -19 15 -9 8 6 17 22 21 33 3
12 17 38 30 57 13 20 28 60 34 90 6 29 21 73 35 96 14 23 25 50 25 59 0 27 59
135 74 135 8 0 18 -15 21 -32 l8 -33 28 35 c16 19 29 40 29 46 0 7 6 14 12 16
9 3 8 12 -6 32 l-18 28 -11 -23 c-7 -12 -19 -24 -27 -27 -12 -4 -13 -2 -3 9
10 10 8 22 -13 57 l-26 44 28 23 c15 12 28 28 30 36 1 8 3 19 5 24 2 6 -2 29
-10 52 -15 45 -8 90 9 63 6 -8 10 -25 10 -37 0 -13 13 -31 31 -44 30 -21 31
-24 24 -74 -4 -34 -2 -55 4 -60 6 -3 11 1 11 9 0 9 7 16 15 16 12 0 15 18 15
103 0 56 -5 153 -11 216 -9 94 -15 120 -36 152 -20 31 -24 46 -19 76 19 121
19 123 1 143 -12 13 -15 27 -11 44 5 19 1 28 -14 36 l-20 11 20 39 20 40 -30
0 c-30 0 -40 13 -19 25 7 5 3 15 -11 30 -11 12 -36 61 -55 109 -19 48 -43 102
-55 120 -11 18 -20 40 -20 49 0 8 -16 48 -35 88 -19 41 -35 79 -35 86 0 7 -27
42 -60 79 -33 36 -60 71 -60 76 0 6 -20 33 -45 60 -25 28 -45 54 -45 59 0 13
24 11 38 -3 18 -18 14 -3 -8 34 -13 22 -16 36 -9 44 14 17 -8 29 -26 14 -16
-13 -27 0 -15 19 10 18 -92 104 -155 131 -25 11 -61 31 -79 45 -18 14 -37 25
-43 25 -12 0 -83 70 -83 82 0 18 35 6 62 -22 15 -16 32 -30 36 -30 4 0 24 -11
45 -25 20 -14 37 -23 37 -20 0 16 -22 45 -33 45 -27 0 -94 87 -100 130 -6 35
-26 44 -76 30 -30 -8 -41 -15 -37 -26 3 -8 0 -14 -8 -14 -15 0 -40 27 -49 53
-9 24 -27 12 -27 -17 0 -29 -35 -75 -47 -62 -4 5 -2 11 5 13 17 7 15 49 -5 68
-19 20 -56 35 -84 35 -16 0 -19 -5 -14 -20 8 -24 -10 -26 -57 -6 -52 22 -191
36 -359 36 -103 0 -159 -4 -166 -11 -9 -9 -24 -7 -62 10 -42 18 -69 21 -168
21 -65 0 -125 -5 -133 -10z m50 -46 c0 -9 -68 -34 -92 -34 l-23 1 24 19 c21
18 91 29 91 14z m960 -24 c0 -5 -4 -10 -10 -10 -5 0 -10 5 -10 10 0 6 5 10 10
10 6 0 10 -4 10 -10z m200 -107 c0 -20 -38 -15 -50 6 -18 35 -11 43 20 24 17
-9 30 -23 30 -30z m-100 6 c0 -11 -4 -17 -10 -14 -5 3 -10 13 -10 21 0 8 5 14
10 14 6 0 10 -9 10 -21z m485 -359 c3 -5 1 -10 -4 -10 -6 0 -11 5 -11 10 0 6
2 10 4 10 3 0 8 -4 11 -10z m-3675 -596 c0 -8 -4 -12 -10 -9 -5 3 -10 10 -10
16 0 5 5 9 10 9 6 0 10 -7 10 -16z m30 -33 c-11 -21 -30 -37 -30 -25 0 8 30
44 37 44 2 0 -1 -9 -7 -19z m-74 -119 c-16 -15 -25 -20 -21 -12 13 25 38 50
44 45 3 -3 -8 -18 -23 -33z m-56 -52 c0 -5 -7 -10 -15 -10 -8 0 -15 5 -15 10
0 6 7 10 15 10 8 0 15 -4 15 -10z m-53 -204 c-16 -23 -16 -26 0 -34 14 -9 14
-11 -6 -21 -17 -10 -22 -9 -27 4 -13 33 20 105 39 86 7 -7 4 -18 -6 -35z
m-148 -45 c15 -10 7 -31 -13 -31 -8 0 -19 6 -25 13 -19 23 9 36 38 18z m115
-49 c7 -11 -6 -27 -26 -35 -20 -7 -32 7 -24 28 6 16 41 21 50 7z m-34 -142 c0
-42 -33 -120 -50 -120 -15 0 -12 16 5 30 19 16 10 30 -20 30 -41 0 -40 21 3
62 23 21 46 38 52 38 5 0 10 -18 10 -40z m-44 -216 c-3 -8 -10 -14 -16 -14
-14 0 -13 27 2 53 l13 22 3 -23 c2 -13 1 -30 -2 -38z m-6 -73 c0 -16 7 -34 15
-41 15 -12 12 -30 -5 -30 -19 0 -42 50 -36 75 9 34 26 32 26 -4z m-110 -6 c0
-8 -4 -17 -10 -20 -6 -4 -10 5 -10 20 0 15 4 24 10 20 6 -3 10 -12 10 -20z
m4560 10 c0 -8 -4 -15 -10 -15 -5 0 -10 7 -10 15 0 8 5 15 10 15 6 0 10 -7 10
-15z m-4452 -146 c2 -37 -2 -60 -12 -74 -15 -19 -15 -18 -16 18 0 40 -15 50
-25 17 -7 -23 -23 -26 -31 -6 -10 26 48 110 70 103 6 -2 12 -28 14 -58z m-23
-139 c3 -5 1 -10 -4 -10 -6 0 -11 5 -11 10 0 6 2 10 4 10 3 0 8 -4 11 -10z
m85 -52 c-1 -7 -7 -24 -15 -38 l-13 -25 -7 27 c-4 15 -4 32 0 37 9 15 35 14
35 -1z m2430 -287 c0 -14 -50 -51 -69 -51 -11 0 -6 10 17 30 33 30 52 38 52
21z m-2490 -11 c0 -5 -5 -10 -11 -10 -5 0 -7 5 -4 10 3 6 8 10 11 10 2 0 4 -4
4 -10z m108 -160 c3 -21 2 -22 -12 -11 -19 16 -21 44 -3 39 6 -3 14 -15 15
-28z m267 -390 c3 -5 1 -10 -4 -10 -6 0 -11 5 -11 10 0 6 2 10 4 10 3 0 8 -4
11 -10z m135 -86 c0 -8 -4 -12 -10 -9 -5 3 -10 10 -10 16 0 5 5 9 10 9 6 0 10
-7 10 -16z m872 -446 c-9 -9 -15 -9 -24 0 -9 9 -7 12 12 12 19 0 21 -3 12 -12z
m1118 -13 c0 -10 -11 -15 -35 -15 -56 0 -41 25 18 29 9 0 17 -6 17 -14z m-613
-20 c-4 -8 -18 -15 -32 -15 -30 0 -25 17 9 30 25 9 30 6 23 -15z m518 -15 c-3
-5 -19 -10 -35 -10 -16 0 -41 -5 -55 -10 -34 -13 -55 -2 -30 17 22 15 129 18
120 3z m-165 -20 c0 -12 -35 -31 -44 -23 -8 9 14 33 30 33 8 0 14 -4 14 -10z"/>
<path d="M3890 4084 c0 -8 5 -12 10 -9 6 3 10 10 10 16 0 5 -4 9 -10 9 -5 0
-10 -7 -10 -16z"/>
<path d="M4030 4061 c0 -11 26 -22 34 -14 3 3 3 10 0 14 -7 12 -34 11 -34 0z"/>
<path d="M4024 4009 c-3 -5 13 -17 35 -26 30 -12 43 -23 47 -42 12 -55 18 -54
25 4 8 64 5 75 -12 58 -8 -8 -22 -8 -50 2 -25 9 -41 10 -45 4z"/>
<path d="M4160 3972 c0 -14 39 -46 47 -39 3 4 -2 16 -12 27 -19 21 -35 26 -35
12z"/>
<path d="M4340 3925 c0 -8 5 -15 10 -15 6 0 10 7 10 15 0 8 -4 15 -10 15 -5 0
-10 -7 -10 -15z"/>
<path d="M4224 3896 c-21 -18 -24 -25 -13 -26 17 0 56 37 47 46 -3 3 -19 -6
-34 -20z"/>
<path d="M4280 3876 c0 -9 5 -16 10 -16 6 0 10 4 10 9 0 6 -4 13 -10 16 -5 3
-10 -1 -10 -9z"/>
<path d="M4416 3861 c-4 -7 -5 -15 -2 -18 9 -9 19 4 14 18 -4 11 -6 11 -12 0z"/>
<path d="M4290 3790 c0 -5 5 -10 10 -10 6 0 10 5 10 10 0 6 -4 10 -10 10 -5 0
-10 -4 -10 -10z"/>
<path d="M4490 3634 c0 -8 5 -12 10 -9 6 3 10 10 10 16 0 5 -4 9 -10 9 -5 0
-10 -7 -10 -16z"/>
<path d="M4442 3538 c3 -7 13 -15 22 -16 12 -3 17 1 14 10 -3 7 -13 15 -22 16
-12 3 -17 -1 -14 -10z"/>
<path d="M4590 3361 c0 -5 5 -13 10 -16 6 -3 10 -2 10 4 0 5 -4 13 -10 16 -5
3 -10 2 -10 -4z"/>
<path d="M4740 2880 c0 -11 7 -20 15 -20 13 0 14 4 5 20 -6 11 -13 20 -15 20
-3 0 -5 -9 -5 -20z"/>
<path d="M4856 1758 c-21 -29 -20 -51 2 -71 28 -25 32 -21 32 32 0 57 -12 71
-34 39z"/>
<path d="M4790 1621 c0 -5 9 -11 20 -14 13 -3 20 0 20 9 0 8 -9 14 -20 14 -11
0 -20 -4 -20 -9z"/>
<path d="M350 1515 c0 -8 5 -15 10 -15 6 0 10 7 10 15 0 8 -4 15 -10 15 -5 0
-10 -7 -10 -15z"/>
<path d="M4640 1470 c0 -5 5 -10 10 -10 6 0 10 5 10 10 0 6 -4 10 -10 10 -5 0
-10 -4 -10 -10z"/>
<path d="M480 1125 c0 -8 5 -15 10 -15 6 0 10 7 10 15 0 8 -4 15 -10 15 -5 0
-10 -7 -10 -15z"/>
<path d="M540 1054 c0 -8 5 -12 10 -9 6 4 8 11 5 16 -9 14 -15 11 -15 -7z"/>
<path d="M790 709 c0 -5 5 -7 10 -4 6 3 10 8 10 11 0 2 -4 4 -10 4 -5 0 -10
-5 -10 -11z"/>
<path d="M1256 432 c-3 -6 -1 -14 5 -17 15 -10 25 3 12 16 -7 7 -13 7 -17 1z"/>
<path d="M3284 405 c-9 -14 -13 -29 -9 -33 7 -7 45 34 45 49 0 18 -20 9 -36
-16z"/>
<path d="M3121 364 c0 -11 3 -14 6 -6 3 7 2 16 -1 19 -3 4 -6 -2 -5 -13z"/>
<path d="M2960 315 c-7 -8 -10 -22 -6 -30 6 -18 26 -20 26 -3 0 6 7 20 17 30
15 17 15 18 -4 18 -11 0 -26 -7 -33 -15z"/>
<path d="M1846 271 c-8 -13 11 -61 24 -61 5 0 10 16 10 35 0 34 -20 49 -34 26z"/>
<path d="M2040 232 c0 -5 16 -16 35 -25 20 -9 38 -24 41 -32 4 -8 10 -15 15
-15 12 0 41 59 34 70 -7 12 -125 13 -125 2z"/>
<path d="M2208 235 c-17 -18 8 -25 83 -25 46 0 79 4 79 10 0 6 -15 10 -34 10
-18 0 -53 3 -77 6 -24 3 -47 3 -51 -1z"/>
</g>
</svg>
