<?xml version="1.0" standalone="no"?>
<!DOCTYPE svg PUBLIC "-//W3C//DTD SVG 20010904//EN"
 "http://www.w3.org/TR/2001/REC-SVG-20010904/DTD/svg10.dtd">
<svg version="1.0" xmlns="http://www.w3.org/2000/svg"
 width="475.000000pt" height="376.000000pt" viewBox="0 0 475.000000 376.000000"
 preserveAspectRatio="xMidYMid meet">

<g transform="translate(0.000000,376.000000) scale(0.100000,-0.100000)"
fill="#000000" stroke="none">
<path d="M2316 3651 c-3 -4 1 -17 8 -27 14 -18 15 -18 35 0 12 11 21 23 21 28
0 11 -57 11 -64 -1z"/>
<path d="M2325 3556 c-33 -13 -127 -51 -210 -85 -82 -33 -161 -61 -175 -61
-52 -1 -156 -32 -201 -61 -25 -16 -64 -31 -85 -33 -22 -1 -64 -17 -94 -34 -30
-17 -75 -38 -99 -47 -38 -13 -42 -13 -31 0 18 21 12 20 -103 -26 -124 -49
-143 -64 -68 -54 33 5 51 4 48 -2 -4 -6 -77 -36 -163 -68 -87 -33 -152 -61
-146 -63 18 -6 113 24 293 93 178 68 231 85 214 67 -5 -6 -44 -24 -86 -40 -42
-16 -100 -47 -130 -69 -65 -48 -261 -153 -286 -153 -10 0 -38 -10 -63 -21
l-45 -20 25 -19 24 -18 -27 -13 c-15 -7 -27 -17 -27 -24 0 -6 -30 -29 -66 -50
-72 -42 -85 -59 -62 -81 12 -12 20 -12 60 2 25 8 66 14 90 12 l43 -3 -70 -24
c-113 -38 -269 -103 -288 -119 -23 -20 -43 -31 -164 -91 -58 -28 -107 -59
-113 -72 -15 -28 -5 -82 20 -104 11 -10 20 -21 20 -26 0 -4 -28 -20 -62 -37
-68 -32 -119 -73 -100 -80 7 -2 12 -10 12 -19 0 -11 5 -10 28 6 26 18 139 61
162 61 27 0 3 -19 -75 -58 -64 -33 -87 -50 -91 -68 -4 -14 -4 -27 -1 -30 2 -3
51 14 107 36 104 41 149 49 95 15 -155 -95 -169 -120 -36 -65 41 16 76 30 79
30 4 0 -16 -23 -43 -50 -49 -50 -49 -50 -21 -50 24 0 26 -2 16 -15 -6 -8 -9
-23 -5 -34 7 -24 -11 -37 -214 -146 -135 -72 -205 -115 -198 -121 6 -6 102 23
151 45 27 12 84 30 127 41 43 10 96 28 118 40 41 20 91 27 91 12 0 -5 -23 -19
-51 -33 -28 -13 -63 -38 -76 -56 -13 -17 -48 -46 -76 -64 -65 -41 -102 -73
-138 -123 -34 -45 -38 -76 -10 -76 22 0 255 113 296 144 17 13 51 26 77 30 42
6 47 5 53 -14 4 -14 12 -19 22 -16 51 20 104 28 116 17 10 -8 17 -7 25 1 13
13 27 5 18 -10 -3 -5 -27 -17 -53 -27 -60 -23 -103 -52 -103 -71 0 -8 9 -14
20 -14 24 0 24 -3 6 -38 -11 -21 -28 -31 -83 -46 -131 -36 -149 -71 -28 -56
91 12 125 12 125 1 0 -5 -19 -16 -42 -23 -33 -11 -48 -24 -63 -52 -29 -55 -50
-63 -88 -35 -28 20 -35 21 -73 11 -24 -7 -63 -9 -87 -6 -33 5 -53 1 -85 -15
-53 -27 -58 -37 -28 -56 31 -21 206 -33 239 -17 19 10 143 31 347 60 70 10
200 5 200 -8 0 -11 -38 -20 -95 -21 -27 -1 -63 -5 -80 -9 -46 -12 151 -12 275
0 61 6 118 6 135 1 l30 -8 -28 -12 c-40 -16 -173 -33 -305 -38 -97 -4 -114 -7
-122 -24 -6 -10 -21 -19 -33 -19 -12 0 -33 -8 -47 -17 -13 -9 -59 -24 -103
-33 -45 -8 -82 -21 -84 -27 -8 -23 127 -35 189 -18 18 4 28 3 28 -3 0 -11 -72
-37 -132 -48 -21 -3 -38 -11 -38 -16 0 -7 69 -9 203 -5 157 4 220 10 282 26
98 25 143 28 125 7 -14 -18 -97 -46 -240 -81 -105 -26 -147 -45 -100 -45 34 0
17 -12 -53 -37 l-62 -21 89 6 c63 4 87 2 82 -6 -6 -11 -31 -19 -191 -67 -191
-57 -205 -79 -42 -69 161 10 170 10 174 -2 2 -6 -4 -14 -14 -18 -10 -4 -40
-20 -68 -36 -27 -15 -65 -35 -82 -44 -18 -8 -33 -20 -33 -25 0 -20 128 -12
525 33 l40 5 0 -76 c0 -52 4 -78 13 -80 9 -4 10 1 2 22 -15 38 -13 78 3 68 6
-4 21 -8 32 -8 17 0 20 -6 17 -45 -2 -25 2 -56 8 -70 10 -24 10 -23 6 8 -6 33
10 45 21 16 4 -12 8 -13 14 -3 5 9 12 2 22 -22 10 -22 16 -28 16 -15 1 16 3
17 18 5 15 -12 16 -12 11 8 -6 22 -5 22 23 7 19 -10 35 -12 47 -6 9 5 76 12
147 15 72 4 171 15 220 26 89 19 90 19 111 0 11 -10 24 -19 29 -19 5 0 17 -8
27 -17 18 -16 21 -14 68 35 27 28 54 61 60 73 9 15 15 18 23 10 16 -16 27 -14
27 5 0 11 6 14 20 9 14 -5 20 -2 20 9 0 9 7 16 16 16 10 0 14 6 11 14 -7 17
11 25 78 36 28 5 68 14 90 21 22 6 75 11 118 10 58 -2 83 1 95 12 9 9 58 23
107 32 177 31 206 41 175 60 -15 9 -12 45 4 45 8 0 17 9 21 20 7 23 24 26 206
37 108 6 135 5 132 -4 -3 -8 3 -13 15 -13 12 0 24 -4 27 -10 10 -16 19 -12 30
12 12 27 92 48 278 73 67 8 148 22 179 30 32 8 74 15 95 15 50 0 119 35 140
71 19 31 26 34 110 44 49 5 51 5 45 -17 l-6 -23 30 19 c79 50 74 76 -36 169
l-45 38 131 -4 c108 -3 140 -8 186 -27 37 -15 62 -20 75 -15 16 8 16 9 -4 12
-24 5 -32 23 -10 23 6 1 -1 11 -16 24 l-28 22 21 19 c11 10 20 26 20 35 0 9 5
21 11 27 6 6 7 13 2 16 -10 6 -16 4 -228 -62 -136 -43 -223 -53 -244 -28 -17
21 -4 26 41 15 31 -7 46 -5 64 7 13 8 23 20 21 26 -1 5 14 16 34 23 48 17 101
55 96 70 -3 10 -19 19 -114 65 -40 19 -45 19 -100 5 -32 -8 -94 -31 -138 -49
-113 -49 -132 -46 -70 10 28 24 65 49 82 54 18 5 45 19 59 30 15 12 32 21 38
21 7 0 25 14 42 31 16 17 59 51 96 75 65 44 138 114 138 134 0 6 -7 10 -15 10
-8 0 -15 5 -15 10 0 6 9 10 21 10 29 0 59 18 59 36 0 21 47 41 62 26 22 -22
73 -11 152 32 44 23 82 48 84 54 2 6 -7 16 -19 22 -17 9 -27 9 -45 -1 -19 -10
-27 -10 -36 -1 -19 19 -52 14 -120 -18 -34 -16 -72 -30 -83 -30 -12 0 -47 -9
-79 -21 -60 -20 -97 -22 -103 -4 -1 6 44 34 101 64 120 61 156 92 136 116 -18
22 -118 19 -190 -5 -50 -17 -64 -18 -82 -8 -31 18 -35 25 -43 77 -3 25 -9 61
-12 79 -5 31 -4 32 31 32 20 0 44 -5 54 -11 21 -13 80 3 188 52 46 21 64 35
64 48 0 23 -33 33 -68 20 -17 -7 -29 -6 -36 1 -16 16 -67 11 -116 -11 -52 -24
-152 -39 -174 -27 -9 5 -21 18 -27 29 -14 28 10 54 77 84 28 13 54 28 58 33 4
6 39 27 79 46 86 42 186 124 165 137 -21 14 -87 10 -118 -6 -48 -25 -80 -35
-80 -26 0 11 151 101 168 101 7 0 12 4 12 9 0 6 -27 18 -60 27 -33 9 -60 22
-60 29 0 7 24 20 52 30 88 28 197 85 209 107 9 18 8 24 -7 35 -25 18 -133 17
-190 -3 -39 -13 -54 -14 -83 -5 -42 14 -51 14 -246 8 -82 -2 -163 -9 -178 -16
-16 -6 -47 -11 -69 -11 l-41 0 59 54 c45 42 56 57 47 66 -11 12 -64 10 -113
-6 -45 -14 -3 24 64 58 l59 30 -48 26 c-58 32 -66 49 -28 58 15 4 63 24 106
45 42 20 100 40 127 44 103 14 33 44 -120 51 -105 5 -227 33 -332 75 -59 24
-179 26 -198 4 -7 -8 -29 -15 -50 -15 -30 0 -39 -4 -43 -21 -5 -18 -10 -20
-34 -14 -15 4 -41 7 -58 8 -16 1 -36 6 -43 10 -7 5 -35 -2 -68 -17 -64 -30
-102 -35 -70 -11 18 14 17 15 -25 15 -37 0 -48 4 -58 23 -7 13 -29 32 -48 43
-53 28 -84 54 -78 65 4 5 0 9 -7 9 -21 0 -99 -53 -137 -94 -19 -20 -38 -36
-43 -36 -4 0 -24 11 -44 25 -36 25 -59 28 -59 9 0 -20 -17 -34 -41 -34 -17 0
-24 6 -24 19 0 37 -26 46 -78 28 -54 -20 -62 -21 -62 -8 0 14 104 61 134 61
14 0 28 5 32 12 4 7 3 8 -4 4 -7 -4 -12 -5 -12 -2 0 3 18 15 40 26 37 19 53
40 31 40 -20 0 -147 -43 -169 -56 -22 -14 -42 -12 -42 6 0 5 24 16 53 26 73
24 129 53 122 64 -9 15 -34 11 -100 -14z m-115 -91 c0 -6 -62 -45 -72 -45 -20
0 -4 23 25 35 35 15 47 18 47 10z m120 -139 c0 -19 -39 -31 -53 -17 -7 7 -3
13 14 20 34 14 39 13 39 -3z m1885 -456 c-3 -5 -10 -10 -16 -10 -5 0 -9 5 -9
10 0 6 7 10 16 10 8 0 12 -4 9 -10z m-11 -1141 c-21 -23 -73 -53 -80 -46 -8 7
69 67 85 67 11 0 10 -5 -5 -21z m-3409 -378 c3 -5 1 -12 -5 -16 -5 -3 -10 1
-10 9 0 18 6 21 15 7z m90 -1 c3 -5 1 -10 -4 -10 -6 0 -11 5 -11 10 0 6 2 10
4 10 3 0 8 -4 11 -10z m-165 -20 c0 -5 -9 -10 -20 -10 -11 0 -20 5 -20 10 0 6
9 10 20 10 11 0 20 -4 20 -10z m520 -95 c0 -8 -71 -24 -86 -18 -26 10 -3 23
42 23 24 0 44 -2 44 -5z m-230 -41 c0 -8 -5 -12 -10 -9 -6 4 -8 11 -5 16 9 14
15 11 15 -7z m-190 -144 c0 -5 -7 -10 -16 -10 -8 0 -12 5 -9 10 3 6 10 10 16
10 5 0 9 -4 9 -10z m-75 -40 c-3 -5 -10 -10 -16 -10 -5 0 -9 5 -9 10 0 6 7 10
16 10 8 0 12 -4 9 -10z m2529 -199 c6 -10 -53 -26 -130 -37 -35 -4 -54 -3 -59
6 -10 16 -4 19 46 29 60 12 137 13 143 2z m-2346 -28 c-10 -2 -26 -2 -35 0
-10 3 -2 5 17 5 19 0 27 -2 18 -5z m1922 -109 c0 -8 -4 -12 -10 -9 -5 3 -10
10 -10 16 0 5 5 9 10 9 6 0 10 -7 10 -16z m-135 -14 c-3 -5 -11 -10 -16 -10
-6 0 -7 5 -4 10 3 6 11 10 16 10 6 0 7 -4 4 -10z m-180 -80 c-3 -5 -10 -10
-16 -10 -5 0 -9 5 -9 10 0 6 7 10 16 10 8 0 12 -4 9 -10z"/>
<path d="M2552 3550 c-23 -10 -39 -36 -28 -47 3 -3 14 1 23 9 10 9 27 18 38
20 22 4 24 22 3 25 -7 1 -23 -2 -36 -7z"/>
<path d="M2455 3450 c-17 -18 -17 -20 -1 -20 9 0 19 7 23 15 9 25 -2 27 -22 5z"/>
<path d="M1000 3110 c-14 -11 -20 -20 -13 -20 21 0 63 19 63 30 0 16 -23 11
-50 -10z"/>
<path d="M340 1877 c-32 -20 -33 -22 -13 -25 24 -4 83 23 83 38 0 17 -33 11
-70 -13z"/>
<path d="M4677 1164 c-4 -4 -30 -12 -59 -20 -33 -8 -43 -13 -27 -13 15 -1 40
-4 56 -7 31 -6 69 18 58 37 -7 10 -19 12 -28 3z"/>
<path d="M2958 633 c6 -2 18 -2 25 0 6 3 1 5 -13 5 -14 0 -19 -2 -12 -5z"/>
<path d="M2760 570 c0 -5 4 -10 9 -10 6 0 13 5 16 10 3 6 -1 10 -9 10 -9 0
-16 -4 -16 -10z"/>
<path d="M1688 265 c-6 -14 -19 -25 -28 -25 -37 0 -55 -55 -25 -80 28 -24 85
20 71 55 -2 7 2 19 10 25 19 16 18 50 -1 50 -9 0 -21 -11 -27 -25z"/>
<path d="M1480 175 c0 -8 5 -15 10 -15 6 0 10 7 10 15 0 8 -4 15 -10 15 -5 0
-10 -7 -10 -15z"/>
<path d="M1030 138 c-39 -19 -59 -33 -49 -35 21 -5 131 39 137 55 6 19 -18 14
-88 -20z"/>
<path d="M1245 30 c-3 -5 -1 -10 4 -10 6 0 11 5 11 10 0 6 -2 10 -4 10 -3 0
-8 -4 -11 -10z"/>
<path d="M1520 10 c0 -5 9 -10 20 -10 11 0 20 5 20 10 0 6 -9 10 -20 10 -11 0
-20 -4 -20 -10z"/>
<path d="M1980 10 c-11 -7 -7 -10 18 -10 20 0 31 4 27 10 -8 13 -26 13 -45 0z"/>
</g>
</svg>
