<?xml version="1.0" standalone="no"?>
<!DOCTYPE svg PUBLIC "-//W3C//DTD SVG 20010904//EN"
 "http://www.w3.org/TR/2001/REC-SVG-20010904/DTD/svg10.dtd">
<svg version="1.0" xmlns="http://www.w3.org/2000/svg"
 width="458.000000pt" height="395.000000pt" viewBox="0 0 458.000000 395.000000"
 preserveAspectRatio="xMidYMid meet">
<metadata>
Created by potrace 1.16, written by Peter Selinger 2001-2019
</metadata>
<g transform="translate(0.000000,395.000000) scale(0.100000,-0.100000)"
fill="#000000" stroke="none">
<path d="M2187 3936 c-73 -27 -107 -80 -107 -169 0 -199 296 -226 340 -31 11
45 -2 105 -31 145 -37 53 -136 79 -202 55z"/>
<path d="M855 3265 c-38 -7 -101 -25 -140 -39 -374 -143 -645 -464 -705 -838
-19 -116 -8 -372 20 -473 64 -234 202 -442 383 -577 159 -118 342 -197 504
-219 110 -15 348 -6 423 15 81 23 85 22 105 -31 60 -161 156 -305 289 -439
152 -152 297 -242 499 -309 521 -173 1111 18 1429 462 43 60 57 73 73 68 133
-39 184 -47 265 -42 214 14 394 136 492 333 l43 87 0 162 0 161 -39 80 c-55
110 -170 225 -280 280 l-80 39 -152 5 -153 5 -58 115 c-76 149 -137 234 -248
345 -166 167 -338 267 -570 331 -70 20 -123 27 -236 31 -240 9 -397 -15 -590
-90 l-66 -26 -58 85 c-174 256 -406 419 -680 475 -108 22 -360 25 -470 4z"/>
<path d="M2071 3248 c-25 -13 -58 -41 -75 -61 -26 -33 -31 -48 -34 -107 -4
-57 0 -75 19 -109 65 -117 221 -139 315 -46 48 48 59 84 52 171 -6 65 -27 98
-92 138 -64 40 -127 45 -185 14z"/>
<path d="M3092 3157 c-12 -13 -25 -37 -28 -55 -6 -28 -1 -37 34 -72 22 -22 49
-40 61 -40 84 0 134 108 76 165 -34 35 -112 35 -143 2z"/>
<path d="M997 850 c-46 -36 -45 -111 2 -147 17 -13 79 -17 106 -7 21 8 45 56
45 89 0 16 -12 38 -29 56 -36 35 -86 39 -124 9z"/>
<path d="M4374 665 c-40 -21 -74 -82 -74 -134 0 -34 7 -49 38 -82 31 -33 46
-42 82 -46 109 -11 190 96 145 191 -34 71 -125 105 -191 71z"/>
<path d="M3766 639 c-20 -16 -26 -29 -26 -58 0 -70 68 -104 124 -60 38 30 36
79 -5 113 -37 31 -58 33 -93 5z"/>
<path d="M849 413 c-59 -37 -81 -117 -51 -186 27 -61 61 -82 133 -82 48 0 62
5 84 25 79 74 71 195 -16 242 -42 22 -115 23 -150 1z"/>
</g>
</svg>
